<?xml version="1.0" encoding="UTF-8"?>
<svg xmlns="http://www.w3.org/2000/svg" viewBox="0 0 1359.4 1723.47">
  <defs>
    <style>
      .cls-1 {
        fill: #cbd537;
      }

      .cls-1, .cls-2, .cls-3, .cls-4, .cls-5, .cls-6 {
        stroke-width: 0px;
      }

      .cls-2 {
        fill: none;
      }

      .cls-3 {
        fill: #f8789b;
      }

      .cls-4 {
        fill: #020202;
      }

      .cls-5 {
        fill: #f055a5;
      }

      .cls-6 {
        fill: #f7e0d3;
      }
    </style>
  </defs>
  <g id="Layer_1" data-name="Layer 1">
    <path class="cls-6" d="M759.54,348.77c-5.77-24.8-27.03-30.8-48.84-29.4,5.4-9.99,7.99-20.94,4.07-31.97-4.18-11.77-16.39-22.38-29.19-22.77-5.9-.18-10.92,1.38-15.61,3.73-1.23.23-2.5.78-3.77,1.72-.77.57-1.52,1.16-2.27,1.76-2.98,1.89-5.92,3.93-8.98,5.86-1.4-9.32-3.55-18.51-6.77-27.42-7.2-19.88-21.02-42.66-43.91-45.85-22.18-3.09-41.35,11.97-47.43,32.78-5.12,17.54-2.08,37.48,3.91,54.4,4.14,11.69,10.71,24.27,19.69,34.01-3.42-.42-6.87-.57-10.38-.23-9.23.89-18.27,4.29-25.92,9.52-14.43,9.86-26.61,25.27-29.2,42.91-2.14,14.63,1.91,29.85,12.32,40.6,11.74,12.12,28.36,14.75,44.42,12.24,10.61-1.66,20.46-5.87,28.77-12.71.69-.57,1.35-1.16,2.01-1.77-.75,7.04-1.15,14.07-1.2,20.89-.12,17.07,3.56,34.8,15.14,47.9,12.7,14.36,35.29,19.63,53.82,19.07,10.23-.31,20.21-3.66,27.23-11.38,7.97-8.76,13.2-21.95,17-33.02,4.78-13.91,4.36-27.14-1.5-40.59-1.68-3.85-3.54-7.53-5.73-11.02,2.48.06,4.96-.02,7.43-.25,10.61-1,22.33-3.65,31.29-9.73,16.7-11.33,17.81-31.2,13.6-49.3ZM732.71,383.65c-7.61,4.1-17.12,5.9-25.69,5.89-9.07,0-17.22-3.89-26.18-4.57-7.73-.59-10.74,9.79-5.87,14.7,7.15,7.22,15.2,11.45,20.31,20.7,5.35,9.68,7.16,19.49,4.04,30.23-.97,3.36-2.24,6.95-3.74,10.53,1.75-.86,3.36-2.01,4.96-3.18.44-.32,1.01-.46,1.52-.68,1.92-.84,4.79.99,4.93,3.17.07,1.1.04,2.22.04,2.29-.4,4.49-2.1,7.39-3.9,10.21-.42.66-1.2,1.2-1.94,1.52-3.07,1.31-6.18,2.55-9.29,3.75-1.49.58-3.65-.52-4.37-2.01-.57.82-1.14,1.64-1.73,2.4-4.8,6.18-12.23,7.16-19.57,6.75-13.07-.74-28.12-4.54-36.06-15.8-7.04-9.97-7.1-23.48-6.38-35.16.96-15.6,5.58-30.59,7.08-46.09.56-5.77-2.97-9.29-7.42-10.44-2.62-1.89-6.12-2.31-9.67.2-15.62,11.05-23.99,29.43-43.97,33.83-13.82,3.04-28.73.11-34.97-13.89-6.19-13.89-.46-28.92,9.28-39.51,6.46-7.02,14.75-13.11,24.18-15.32,10.79-2.52,22,1.5,32.96.69,5.33-.39,8.28-6.79,6.5-10.87.09-1.73-.45-3.44-1.9-4.66-6.14-5.2-11.15-11.07-15.27-17.5-1.78,1.13-3.33,2.62-4.89,4.11-.39.38-.93.59-1.41.89-1.79,1.1-4.89-.32-5.32-2.46-.22-1.08-.34-2.19-.35-2.26-.22-4.51,1.06-7.61,2.45-10.65.32-.71,1.02-1.36,1.71-1.77.34-.21.69-.4,1.03-.61-2.15-4.94-3.94-10.1-5.44-15.47-4.14-14.84-6.98-35.46,3.73-48.34,5.3-6.37,14.6-9.39,22.36-5.83,8.91,4.09,14.41,14.24,18.35,22.69,10.62,22.75,14.5,49.51,14.42,74.43.45,12.77,19.35,12.45,19.78-.25.07-2.04.12-4.09.17-6.13,1.26-12.95,8.36-24.71,18.99-32.54.85-.63,1.55-1.33,2.13-2.08,1.29.02,2.55.17,3.75.52,5.45,1.57,10.75,6.86,10.48,12.73-.54,11.94-12.36,22.55-19.35,31.22-8.48,10.52,2.19,23.87,14.39,18.17,12.67-5.92,44.37-13.47,50.93,5.68,3.58,10.43,5.49,24.65-5.79,30.74Z"/>
    <g>
      <path class="cls-2" d="M390.19,693.76c1.29-29.88-4.11-57.79-9.19-87.04-3.24-18.65-4.24-37.65-6.15-56.46-1.3-12.84-2.76-25.75-5.07-38.49-.26,4-.4,8.03-.34,12.09.28,19.22,5.2,37.89,7.09,56.94,3.71,37.43-8.81,75.06,4.18,111.41,2.23,6.23,5.42,10.97,9.66,14.8-.29-4.38-.37-8.8-.18-13.24Z"/>
      <path class="cls-3" d="M1093.3,1254.94c-3.47-15.17-4.29-30.8-1.62-46.16,2.56-14.68,14.5-31,10.89-46.13-1.77-7.41-6.39-14.11-9.55-20.97-3.55-7.69-6.36-15.66-8.3-23.91-3.9-16.6-5-33.81-6.86-50.73-1.03-9.36-2.64-18.57-2.68-28.02-.03-8.68.6-17.35,1.42-25.98,1.69-17.87,4.35-35.69,5.04-53.65.72-18.86.4-37.79,1.08-56.67.68-18.92.6-37.61-1.14-56.48-3.36-36.54-8.61-72.68-14.94-108.82-6.23-35.54-14.79-70.05-24-104.89-6.73-25.44-8.87-57.6,5.48-80.95,7.95-12.91,20.14-21.59,33.64-28.18-1.95-1.41-3.85-2.93-5.68-4.6-11.54-10.51-20.31-24.4-27.72-38.02-7.44-13.69-14.64-28.1-19.7-42.85-6.17-17.94-9.48-36.7-18.15-53.73-8.98-17.65-14.51-35.72-17.08-55.35-2.41-18.37-2.02-36.86-2.77-55.33-.78-18.95-3.07-37.68-6.78-56.27-8.08-40.55-21.27-80.56-36.81-118.83-6.67-16.44-15.88-33.83-16.9-51.83-.81-14.15,2.89-30.14,12.07-41.25-14.72-3.46-29.95-4.79-45.11-5.2-11.27-.3-22.55-.07-33.83.18-10.04.22-20.42-.45-30.4.69-39.74,4.53-54.76,42.91-50.26,78.73,5.53,43.96,37.09,78.86,49.89,120.65,7.9,25.76,5.82,52.27,7.97,78.83,2.27,28.04,6.63,55.9,11.52,83.6,9.7,55.02,22.05,110.02,23.05,166.12.35,19.19-2.34,37.2-12.39,52.92-8.32,13.02-22.61,24.93-35.37,35.66-8.44,7.11-17.17,14.01-25.06,21.74-7.29,7.14-13.73,15.12-21.22,22.06-6.57,6.1-14.15,10-22.96,11.99-4.58,1.03-9.26,1.54-13.95,1.76-4.62.23-7.71.26-11.07-.5-.45-.1-3.84-1.3-3.84-1.18-1.05-.6-2.99-1.91-2.75-1.63-2.87-2.42-3.87-4.09-5.6-8.05-3.27-7.47-4.75-16.29-6.55-24.29-3.55-15.83-6.68-31.86-14.07-46.46-17.54-34.65-61.73-39.26-95.1-26.68-19.17,7.23-36.68,21.42-37.13,43.54-.24,11.9,7.04,19.51,14.22,27.96,6.35,7.47,1.86,18.05-1.21,27.1-.67.57-1.39,1.06-2.13,1.52.97,10.35-.49,21.34-1.93,30.98-2.44,16.25-11.47,26.97-24.79,36.04-34.36,23.41-78.7,27.22-118.26,16.96-4.64-1.21-9.33-2.62-13.99-4.19-8.59-2.89-17.09-6.39-25.11-10.45-2.53-1.29-5.04-2.6-7.46-4-12.78-7.35-21.35-17.92-26.53-31.64-7.43-19.73-8.83-40.96-6.63-61.74,2.11-19.95,2.68-40.01.35-59.97-2.49-21.36-7.88-41.98-7.42-63.65.4-18.6,2.55-37.07,4.3-55.57.2-2.16.41-4.33.6-6.49.41-4.7.75-9.45.95-14.21.24-6.07.23-12.15-.26-18.16-.66-8.06-3.83-14.37-8.22-21.02-10.63-16.1-17.62-32.16-20.02-51.47-2.55-20.46,1.05-41.93,3.03-62.32,1.13-11.57,2.02-23.33,3.92-34.8,1.68-10.05,4.52-19.9,6.6-29.87,2.43-11.63,3.62-23.59,2.25-35.44-1.11-9.56-3.78-18.88-5.63-28.31-3.03-15.47-3.77-31.68-1.08-47.28,2.53-14.62,13.19-26.59,29.1-23.6,4.63.87,8.79,2.84,12.57,5.47-3.14-6.04-7.01-11.57-12.07-15.98-11.16-9.73-25.41-11.07-39.35-7.68-14.13,3.44-27.04,10.91-40.31,16.62-12.85,5.52-26.39,8.47-39.9,11.83-32.96,8.18-68.29,24.62-72.48,62.63-.38,3.45-.5,6.91-.42,10.37-.76,2.27-1.45,4.57-2,6.91-3.17,13.4.77,25.56,8.76,36.31,19.58,26.32,19.25,61.89,19.68,93.06.24,17.73,2.3,35.32,4.95,52.84,2.39,15.81,6.14,31.53,6.53,47.52-2.74,12.51-6.14,24.77-10.11,36.95-4.51,13.86-8.14,27.35-9.82,41.88-1.71,14.76-1.66,29.64-2.9,44.43-1.29,15.28-5.16,30.09-8.14,45.09-3.08,15.48-4.9,30.92-4.89,46.7.02,15,.35,30.26-2.41,45.05-2.85,15.24-9.29,28.71-16.69,42.21-7.66,13.96-16.08,27.51-23.29,41.73-5.86,11.56-12.32,21-21.38,30.28-9.19,9.41-18.74,18.31-26.67,28.85-8.16,10.82-13.03,22.94-19.28,34.85-2.8,5.32-5.93,10.88-10.68,14.75-4.21,3.42-9.87,4.97-14.77,7.03-13.61,5.69-25.29,14.56-31.82,28.15-11.65,24.23-4.15,52.13,9.13,74.05,15.98,26.37,33.58,51.14,42.6,80.99,3.69,12.21,8.48,23.96,13.71,35.53,2.1,17.14,1.29,34.52,4.9,51.5,3.19,15.01,10.56,29.12,18.51,42.13,15.9,26.02,36.17,50.43,38.4,82.12,1.17,16.51-1.27,32.96-3.15,49.32-1.93,16.87-1.71,33.3.84,50.09.46,3.05,1.04,6.05,1.67,9.04,2.04-.61,4.44.15,5.23,2.87,7.61,26.34,10.49,53.59,12.94,80.82,2.31,25.59,10.92,48.68,20.94,72.16,4.38,10.24,8.94,20.44,12.39,31.05,3.97,12.23,4.49,24.95,4.36,37.71-.12,12.67-.65,25.37,2.56,37.74,2.12,8.17,4.53,16.3,7.22,24.3,4.95,14.68,11.7,32.88,24.75,42.35,13.19,9.59,27.86,2.27,39.41-6.41,13.26-9.97,23.25-23.05,34.92-34.69,7.83-7.81,17.81-13.78,27.02-19.86,9.6-6.34,19.25-12.63,28.77-19.09,9.05-6.12,17.69-12.68,26.1-19.64,8.99-7.43,17.42-16.46,27.45-22.47,5.09-3.05,10.6-5.25,15.68-8.24,4.73-2.79,9.11-6.29,13.7-9.31,9.57-6.31,18.09-12.3,25.85-20.91,4.07-4.51,10.02-.2,9.76,4.61,32.57-20.77,63.55-44.02,94.68-66.85,16.9-12.4,34.08-24.45,51.63-35.93,17.21-11.26,34.47-22.62,54.49-28.14,36.43-10.04,74.93,1.27,110.65-12.12,18.56-6.95,35.57-17.11,53.08-26.25,17.04-8.9,34.96-14.58,53.96-17.57,8.67-1.36,17.3-2.25,25.97-.54,9.67,1.91,19.06,4.56,29.02,4.57,19.29.03,37.98-5.69,55.47-13.37,17.25-7.58,33.51-17.15,50.62-25.03,14.73-6.8,27.62-9.6,43.36-4.84,16.07,4.87,30.69,13.84,47.15,17.57-21.12-22.7-41.17-47.54-48.21-78.37ZM286.62,278.75c2.34,1.86,3.52,4.15,2.57,7.15-.24.74-.71,1.52-1.31,2-.58.47-1.44.71-2.2.79-.87.09-2.3-1.1-2.39-1.94-.17-1.6-.2-3.22-.27-4.43.38-1.21.62-1.99.87-2.77.32-.96,1.96-1.42,2.73-.8ZM288.18,1463.18c-1.15,2.54-4.03,3.09-6.09,1.15-.48-.45-.43-1.81.09-2.22.22-.17.44-.34,1.09-.84.85-.12,2.17-.39,3.5-.45,1.16-.04,1.89,1.3,1.41,2.36ZM279.54,266.18c.49-1.55,2.2-2.5,3.85-2.16,1.45.3,2.25,2.13,1.72,3.94-.42,1.4-1.8,2.22-3.11,1.82-1.74-.52-2.9-2.23-2.46-3.6ZM260.27,297.55c1.03-.39,2.14-.54,3.52-.88,1.56.72,2.55,1.25,3.58,1.64,3.07,1.19,4.79,3.65,6.21,6.43.57,1.13-.11,3.04-1.4,3.49-1.02.35-2.15.7-3.19.6-4.29-.43-11.79-4.06-14.81-7.03-.39-.38-.65-.89-.98-1.34-.51-.67-.6-2.01-.1-2.31.45-.27,1.05-.68,1.47-.57,1.92.5,3.78.7,5.7-.03ZM262.95,1459.34c-.12.25-.11.57-.27.77-3.06,3.94-6.1,7.89-9.22,11.78-1.44,1.8-3.46,2.76-5.65,3.31-1.6.41-3.27.55-4.89.93-2.69.62-5.34,1.28-7.58,3.14-1.26,1.05-2.93,1.59-4.65,1.51-.48-.03-1.01-.38-1.37-.73-.39-.38-.26-1.01.33-1.35,1.44-.82,2.93-1.56,5.6-2.95,1.63-.53,4.45-1.86,7.41-2.34,7.88-1.26,12.93-5.83,16.23-12.78.47-.99.98-1.98,1.63-2.85.24-.32.95-.4,1.44-.39.75.03,1.32,1.26.99,1.95ZM229.93,204.41c2.21-1.67,4.53-3.2,6.83-4.75,2.04-1.38,4.1-2.75,6.21-4.02.31-.18,1.2.08,1.42.41.44.65.75,1.47.87,2.26.76,4.65,2.92,8.31,7.03,10.8,1.15.7,2.12,1.76,3.05,2.76.31.34.23,1.04.33,1.58-.23.49-.34,1.11-.71,1.45-.6.55-1.35.95-2.06,1.36-1.68.96-3.43,1.8-5.05,2.85-1.69,1.09-2.76,2.66-3.25,4.66-.32,1.33-.84,2.62-1.35,3.9-.35.86-1.88,1.72-2.77,1.43-.74-.24-1.7-.68-1.97-1.29-1.86-4.11-4.26-7.75-7.84-10.6-1.53-1.21-2.38-3.02-3.06-4.88-1.36-3.69-.93-5.47,2.32-7.92ZM199.08,1563.47c-1.01.37-2.09.58-3.16.77-.73.13-1.63.35-1.96-.56-.08-.22.67-.75,1.32-1.42,1-.17,2.31-.42,3.63-.59.16-.03.55.34.54.5-.03.46-.11,1.21-.37,1.3ZM212.88,1551.56c-.49,1.65-1.53,2.93-2.99,3.78-.67.39-1.58.65-2.32.55-1.34-.18-2.67-.61-3.96-1.04-2.22-.73-3.76-2.21-4.96-5.28-.03-.14-.3-1.2-.44-2.28-.19-1.39,1.35-2.54,2.71-2.15,1.65.46,3.03,1.26,3.98,2.71.75,1.15,1.4,2.37,2.27,3.42.55.67,1.47.61,2.24.21.72-.38,1.35-.98,2.1-1.25.32-.12.89.3,1.27.57.15.1.16.53.1.76ZM241.39,1560.05c-.1.46-.49,1.05-.89,1.2-2.01.74-3.78-.75-3.52-2.87.14-1.1,1.37-1.86,2.4-1.36.68.34,1.25.92,1.73,1.29.13.73.38,1.28.28,1.74ZM282.76,1512.42c-1.07.4-2.44-.11-2.79-1.05-.36-.97.33-2.24,1.44-2.67,1.1-.42,2.47.08,2.8,1.03.34.94-.38,2.28-1.45,2.69ZM307.73,1561.47c-3.16-.43-5.56-2.05-7.35-4.63-.09-.13.18-.72.25-.72,2.97.28,5.94.56,8.9.96.38.05.67.75,1.01,1.15.35,1.63-1.26,3.46-2.81,3.24ZM317.31,1549.16c-.24.31-1.05.47-1.47.32-4.17-1.48-8.34-2.99-12.45-4.61-1.8-.71-3.44-1.78-4.54-3.46-.12-.18-.11-.52-.03-.74s.28-.5.48-.57c1.94-.61,3.81.2,5.72.3,4.42.24,7.77,2.63,11.11,5.08.61.45.87,1.37,1.24,1.98,0,.67.2,1.36-.06,1.7ZM312.17,1493.53c0-.42.45-1.09.85-1.23.67-.23,1.45-.13,2.2-.16,0,.74.21,1.35-.01,1.72-.44.73-1.27,1.04-2.08.77-.42-.14-.95-.71-.96-1.1ZM336.98,1523.58c-.51.09-1.17.28-1.54.04-1.87-1.19-3.34-2.81-4.37-4.77-.16-.31.19-.96.42-1.4.1-.19.51-.39.71-.34.78.21,1.73.31,2.26.82.96.93,1.67,2.13,2.23,2.87.24.98.4,1.5.47,2.03.04.25-.07.73-.18.75ZM368.84,1498.91c-.27.4-.83.61-1.26.91-.51.13-1.03.41-1.51.34-.44-.06-1.02-.41-1.18-.79-.17-.38-.06-1.19.22-1.38.85-.56,1.82-1,2.8-1.28.3-.09.99.41,1.15.78.16.39.03,1.04-.22,1.42ZM378.29,1448.09c-4.19,3.67-8.55,6.99-13.83,9.17-8.51,3.5-16.8,7.55-25.19,11.35-3.05,1.39-6.01,2.98-9.45,3.27-.79.06-1.77.36-2.29.9-1.87,1.95-4.22,2.44-6.74,2.88-1.6.28-3.07,1.3-4.63,1.87-1.83.67-3.69,1.23-5.56,1.78-1.33.4-2.76.54-4.02,1.09-3.59,1.58-7.28,2.57-11.15,3.36-4.63.93-8.95,3.11-12.82,5.95-1.24.91-2.48,1.13-3.9.82-1.72-.38-3.33.05-4.89.73-2.56,1.12-5.17,1.98-7.93,2.58-2.69.58-5.26,1.8-7.83,2.87-1.7.71-3.44,1.44-5.38,3.19,1.78-.15,2.84-.33,3.9-.29.45.02.97.4,1.32.75.47.48-.05,1.71-.81,2.09-.5.24-.97.59-1.5.72-.8.19-1.65.33-2.47.34-2.24,0-4.48.03-6.7-.17-3.66-.32-7.25.29-10.83.74-1.89.23-3.72,1.09-5.52,1.82-2.84,1.17-5.6,2.46-8.73,2.82-1.62.19-3.22.86-4.77,1.48-2.08.83-4.19,1.48-6.41,1.86-1.63.28-3.25.82-4.78,1.46-4.41,1.84-9.19,2.23-13.71,3.65-.5.15-1.14.09-1.65-.07-.45-.13-.83-.52-1.2-.84-.03-.03.23-.53.44-.66,2.39-1.55,4.99-2.45,7.83-2.71,2.28-.21,4.43-.99,6.04-2.61,2.02-2.04,4.45-3.3,6.98-4.52,2.8-1.34,10.06-3.64,13.04-4.37,3.24-.79,6.69-.69,9.74-2.29,3.62-1.9,7.4-2.37,11.37-1.37,1.75.44,3.39.07,4.63-1.21,2.44-2.5,5.41-4.08,8.79-4.49,3.43-.41,6.45-1.75,9.46-3.2,3.26-1.56,6.8-2.62,9.6-5.06.96-.84,2.03-.71,3.14-.63.55.04,1.21.13,1.63-.12,3.09-1.87,6.03-3.91,9.79-4.45,3.29-.47,6.57-1.26,9.75-2.24,3.22-.99,6.57-1.3,9.76-2.2,3.91-1.1,8.34-1.3,11.26-4.81,3.98-2.03,7.87-4.33,12.4-4.86,2.56-.31,4.81-1.3,7.1-2.37,5.3-2.5,10.68-4.84,16-7.31,1.76-.82,3.57-1.66,5.09-2.84,1.59-1.24,3.26-1.9,5.18-2.44,3.2-.91,6.24-2.36,9.38-3.49.34-.12,1.12.25,1.26.57.18.41.11,1.24-.19,1.51ZM383.99,1445.7c-.06.01-.27-.32-.23-.42.1-.23.26-.5.47-.62,2.08-1.23,4.25-2.24,7.6-3.06-4.59,3.41-5.44,3.83-7.84,4.1ZM402.92,1495.87c-1.18.88-3.21.88-4.6-.01-.55-.35-.63-1.72-.08-2.16.42-.34.9-.6,1.29-.86,1.13-.55,2.15-.42,3.14.2.87.55,1.03,2.24.25,2.83ZM480.99,1436.35c-.54.67-1.29,1.01-2.09.74-.41-.15-.74-.68-.99-1.11-.09-.14.1-.54.27-.73.89-1,1.86-1.12,2.77-.4.42.48.45.99.04,1.5ZM491.43,1438.4c-.28.62-1.53.66-1.99.06-.46-.61-.88-1.3-1.11-2.03-.12-.39.06-1.15.36-1.33.35-.21,1.08-.14,1.45.1.61.42,1.07,1.07,1.53,1.55-.08.66-.04,1.22-.24,1.65ZM505.22,1408.4c-.81.13-1.66.04-2.58.03-3.12-.22-5.91.96-8.58,2.55-.98.58-1.35,1.71-.78,2.84.37.73.9,1.39,1.25,2.13.32.66-.34,1.87-1.05,1.98-2.46.39-4.92.93-7.4,1.04-3.05.13-6.1.1-9.09.86-.68.18-1.66-.73-1.74-1.45-.18-1.8.47-3.29,1.8-4.44.34-.29,1.08-.4,1.51-.24.76.27,1.43.8,2.12,1.26,1.02.67,2.09.61,3.18.23,2.19-.75,3.97-1.99,4.9-4.21.32-.77.55-1.62,1.02-2.28.63-.88,1.32-1.93,2.24-2.36,3.06-1.43,5.69-3.43,8.32-5.47.4-.31,1.05-.32,1.59-.43,1.08-.23,2.33.8,1.96,1.9-.67,1.98-.01,3.17,1.69,4.09.4.22.62.77.92,1.17-.43.28-.82.73-1.28.8ZM601.18,851.55c-5.02,11.79-12.73,22.34-22.38,29.53-19.23,14.32-48.34,14.04-65.95-3.01-2.09-2.02-3.96-4.2-5.64-6.49-7.25-7.9-11.25-18.58-11.69-30.12-.68-18.02,5.6-37.13,16.63-51.37,13.47-17.37,39.36-23.75,60.14-18.22,5.93,1.58,11.02,3.93,15.37,6.88,4.93.2,9.84,1.65,14.45,4.73,23.67,15.8,17.16,51.73-.93,68.07ZM739.54,808.51c-5.03,11.79-12.73,22.35-22.38,29.53-19.24,14.32-48.34,14.04-65.96-3.01-2.08-2.02-3.96-4.19-5.63-6.48-7.26-7.91-11.26-18.59-11.69-30.12-.69-18.02,5.59-37.13,16.63-51.37,13.46-17.38,39.35-23.76,60.13-18.22,5.93,1.58,11.03,3.93,15.37,6.87,4.93.21,9.84,1.66,14.46,4.74,23.66,15.8,17.16,51.72-.93,68.06ZM991.78,691.27c-.22.17-.41.43-.64.46-1.44.19-2.52-.39-3.14-1.71-.11-.22-.13-.57-.03-.77.1-.2.4-.4.64-.43,1.44-.18,2.51.39,3.14,1.71.11.21.03.5.03.74ZM1030.95,682.6c-1.5,2.81-3.8,4.79-6.52,6.33-.71.41-1.57.82-2.34.78-3.09-.15-6.12.19-9.18.51-2.26.24-4.39-1.38-5.04-3.6-.39-1.34-.36-2.89-1.06-4.02-1.63-2.65-.92-4.68,1.04-6.7.64-.66-.08-2.45-.99-2.83-.77-.32-1.52-.79-2.32-.9-4.54-.64-8.48-2.63-12.28-5.09-1.85-1.2-3.97-1.99-5.95-3-.62-.31-.8-.77-.48-1.12.16-.18.49-.28.75-.29.56-.01,1.11.07,2.71.2,3.75,1.38,8.45,3.1,13.15,4.82,4.18,1.52,8.18,3.42,12.59,4.46,4.27,1.02,8.28,3.19,12.38,4.93,1.01.43,1.92,1.1,2.84,1.72,1.02.7,1.29,2.69.7,3.8ZM1040.62,689.19c-.13.23-.4.47-.64.51-.23.04-.61-.09-.75-.28-1.42-1.88-1.47-3.3-.2-5.25.13-.22.5-.49.67-.44.48.16,1.22.38,1.32.73.3,1.02.34,2.12.43,2.75-.4.97-.57,1.5-.83,1.98Z"/>
      <path class="cls-3" d="M362.3,129.85c-4.88,1.12-6.51,7.88-7.73,12.01-.17.57-.35,1.12-.52,1.68,0,.06.01.12.02.17,2.41,19.16,8.78,37.16,9.69,56.64.91,19.7-1,40.01-2.89,59.6-1.88,19.54-2.79,39.16-4.4,58.73-1.38,16.74-1.11,32.54,4.79,48.51,5.47,14.8,15.11,26.87,17.14,42.99,2.33,18.59-.37,37.86-2.75,56.3,0,.01,0,.03,0,.04-1.96,15.18-4.86,30.05-5.85,45.23,2.31,12.73,3.77,25.65,5.07,38.49,1.91,18.81,2.91,37.81,6.15,56.46,5.08,29.25,10.48,57.16,9.19,87.04-.19,4.45-.11,8.86.18,13.24,3.26,2.95,7.13,5.36,11.65,7.51,3.58,1.7,7.24,3.27,10.94,4.74,10.18,4.04,20.75,7.26,31.31,9.91,31.99,8.03,66.18,9.79,94.98-8.71,10.01-6.43,18.01-13.7,20.95-25.58,1.83-7.41,2.71-14.89,4.91-22.24.53-1.78.9-3.46,1.12-5.08-.08-.03-.17-.04-.25-.07-12.23-4.38-17.53-17.74-21.06-29.18-9.1-29.47-8.11-61.51-21.77-89.56-13.41-27.55-40.35-46.2-52.49-74.35-8.12-18.83-7.48-39.89-5.98-59.92,1.55-20.66,3.91-41.05,2.6-61.8-2.64-42.14-15.21-82.75-32.93-120.87-8.81-18.94-20.33-36.39-29.31-55.19-2.92-6.12-5.39-12.42-7.62-18.81-2.68-2.48-5.36-4.97-8.04-7.49-6.06-5.71-17.23-22.7-27.08-20.44Z"/>
      <path class="cls-3" d="M351.32,1329.09c.03.22.07.43.1.65-.2-1.35-.17-1.15-.1-.65Z"/>
      <path class="cls-3" d="M478.26,971.27c-2.08-7.31-4.35-17.83-10.28-21.7-1.56-1.02-2.45-1.18-4.07-.69-1.62.49-4.25,2.29-6.12,4.21-6.79,6.98-11.43,17.09-11.28,26.87.16,10.27,4.55,20.18,7.38,29.91,3.61,12.42,4.59,25.41,6,38.21,1.33,12.12,4.35,22.85,8.56,34.26,2.32,6.28,4.46,12.63,6.33,19.05,3.8-3.28,8.07-6.12,12.95-8.42,5.11-2.41,10.46-4.28,15.55-6.71,1.29-.62,2.38-1.26,3.39-1.91-2.6-13.74-4.7-27.56-7.73-41.31-5.37-24.34-13.88-47.82-20.68-71.76Z"/>
      <path class="cls-3" d="M957.34,37.4c-.87,16.09,9.55,32.38,16.04,47.74,8.14,19.27,15.78,38.81,22.03,58.79,11.07,35.39,18.64,72.04,19.93,109.18.09,2.6.14,5.2.18,7.81,2.39,11.51,7.56,22.45,13.25,32.97.05.07.1.12.15.19,1.17,1.65,2.12,3.47,3.09,5.26.71,1.31,1.35,2.65,2.01,3.98.83,1.46,1.65,2.91,2.46,4.35,3.79,6.04,8.48,11.14,15.46,13.82.78.3,1.29,1.3,2.12,2.18-1.64,1.18-3.37,2.21-4.81,3.56-.38.36-.67,1.06-.78,1.71,1.65,2.98,3.27,5.98,4.83,9.01,1.65,1.79,3.58,3.32,5.8,4.55,5.77,3.18,11.34,6.93,18.03,8.14,3.47.63,4.97,2.95,5.72,6.26,1.01,4.47,2.1,8.97,3.71,13.25,2.24,5.94,1.62,10.86-3.34,15.17-.98.85-1.59,2.78-1.48,4.15,1.11,14.2.75,28.48,2.88,42.65,1.89,12.58,2.32,25.36,4.56,37.93.42,2.39-.32,5.03-.73,7.52-.28,1.75-2.53,3.49-4.39,3.74-.66.09-1.38.05-2.1-.09.89,3.62,1.87,7.26,2.85,11.02.21.83.32,1.62.34,2.38,4.55,5.06,9.87,9.38,16.26,11.45,12.53,4.08,28.02,1.6,40.59-1.22,11.17-2.5,24.72-5.56,32.49-13.65,6.64-6.91,9.18-17.19,9.42-28.02.34-15.67-2.28-31.02-5.27-46.34-3.62-18.52-6.49-36.71-6.64-55.62-.07-9.24-.9-18.27-1.93-27.3-7.3-10.82-14.18-21.93-20.2-33.51-6.2-11.93-10-24.48-13.1-37.52-3.2-13.44-5.93-27.03-10.88-39.97-4.65-12.15-10.62-23.75-17.61-34.71-14.28-22.39-31.86-42.79-49.24-62.81-17.48-20.14-34.07-39.92-46.12-63.86-9.97-19.8-22.57-36.1-42.41-46.19-8.6,3.33-12.58,11.49-13.15,22.07Z"/>
      <path class="cls-3" d="M1358.48,1190.54c-3.19-15.52-13.36-28.89-19.6-43.23-20.89-48-12.69-102.62-11-153.24.92-27.45-.07-55.16-6.77-81.93-6.64-26.54-20.13-50.68-31.28-75.48-10.29-22.88-19.06-47.11-20.47-72.36-1.55-27.67.07-55.3-2.71-82.96-2.55-25.4-8.89-50.16-10.87-75.61-1.86-23.88-1.77-47.86-2.61-71.78-.83-23.9-2.49-47.95-7.69-71.35-5.2-23.37-15.02-44.1-28.58-63.73-7.02-10.17-14.37-20.09-21.73-30.02.79,8.02,1.83,16.01,3.55,23.92,4.55,20.83,10.32,41.2,12.41,62.49,1.48,15,.72,30.42-5.7,44.28-7.1,15.34-21.89,24.61-37.33,30.01-20.12,7.05-43.36,9.97-63.98,4.39-19.95,8.48-39.6,18.72-45.14,41.18-7.82,31.64,5.79,63.45,13.31,93.71,8.29,33.33,14.72,67,19.27,101.05,4.61,34.52,9.09,69.37,11.21,104.14,1.1,18.03,2.14,36.07,3.34,54.09,1.18,17.72,2.58,35.2,1.32,52.96-1.24,17.38-3.4,34.71-3.44,52.16-.03,16.7,2.65,33.19,3.2,49.88.53,16,1.36,31.76,6.63,47.03,5.1,14.77,11.93,27.59,9.55,43.75-2.24,15.13-10.42,28.73-11.59,44.1-1.09,14.3,1.37,28.34,6.03,41.84,8.65,25.06,27.95,46,46.24,64.64,3.04,3.09,6.16,6.1,9.4,8.96,7.41-1.74,14.5-4.78,20.86-9.3,13.76-9.77,22.96-23.79,32.13-37.67,2.81-4.25,5.73-8.54,8.95-12.55-1.05-2.26-2.05-4.54-2.96-6.84-4.38-10.98-7.55-22.44-10.65-33.83-3.33-12.22-6.97-24.37-9.35-36.82-4.04-21.14-5.16-42.61-8.17-63.89-2.7-19.1-10.07-36.01-15.39-54.32-4.96-17.06-5.98-36.79,7.43-50.39,6.55-6.64,16.03-9.88,24.76-5.48,7.17,3.61,12.06,10.74,15.84,17.58,19.6,35.5,24.81,76.76,36.15,115.16,10.16,34.42,23.07,67.8,33.26,102.14,12.64-4.48,24.09-12.5,34.43-21.44,13.54-11.7,21.45-27.21,17.75-45.23ZM1186.67,772.14c-1.51.9-2.36,2.34-2.68,4.23-.04.25-.12.49-.17.73h-23.69c-.1-1.74-.18-3.49-.26-5.23-.09-2.01,1.35-2.97,3.32-2,2.53,1.26,5.12,2.19,7.94,2.47,2.78.27,4.74-1.25,5.18-4.16.12-.81.13-1.65.22-2.95,2.39-.07,4.04-.12,5.74-.17.58-.65,1.25-1.19,1.65-1.88.69-1.2,1.58-2.12,2.73-2.78v11.73Z"/>
      <path class="cls-3" d="M1222.82,1053.29c-1.89-3.5-3.86-7.16-6.48-10.18-.69-.8-2.28-2.98-3.47-3.11-.05,0-.09-.01-.13-.02-.12.11-.34.27-.72.48-5.52,3.09-5.98,12.18-5.34,17.59,1.88,15.81,11.26,30.01,15.95,45.02,5.89,18.86,8,38.59,9.92,58.16,1.92,19.63,4.26,38.5,8.62,57.75,3.06,13.49,5.69,27.28,10.6,40.2.68-.39,1.37-.76,2.07-1.11,9.63,1.19,19.25,2.43,28.96,2.83,2.61.11,5.16.03,7.69-.2-11.59-33.98-25.5-67.21-35.46-101.76-10.14-35.17-14.62-73.09-32.22-105.65Z"/>
      <path class="cls-3" d="M351.42,1329.74c.01.08.02.17.04.26,0,.06.02.11.02.15-.02-.14-.04-.28-.06-.41Z"/>
      <path class="cls-4" d="M333.56,109.8c-2.69,15.61-1.95,31.81,1.08,47.28,1.85,9.43,4.52,18.75,5.63,28.31,1.37,11.85.18,23.81-2.25,35.44-2.08,9.97-4.92,19.82-6.6,29.88-1.91,11.47-2.8,23.22-3.92,34.79-1.98,20.4-5.58,41.86-3.04,62.32,2.41,19.32,9.4,35.37,20.02,51.47,4.39,6.65,7.56,12.96,8.22,21.02.49,6.01.5,12.09.25,18.16-.19,4.76-.54,9.51-.95,14.21-.19,2.16-.39,4.32-.6,6.48-1.75,18.5-3.9,36.97-4.3,55.57-.46,21.67,4.93,42.29,7.42,63.65,2.33,19.97,1.75,40.02-.36,59.98-2.2,20.77-.8,42.01,6.63,61.73,5.18,13.72,13.75,24.3,26.53,31.65,2.42,1.39,4.92,2.71,7.46,3.99,8.02,4.06,16.52,7.56,25.11,10.45,4.66,1.57,9.35,2.98,13.99,4.19,39.56,10.26,83.9,6.45,118.26-16.96,13.32-9.07,22.35-19.79,24.78-36.05,1.44-9.64,2.9-20.62,1.94-30.98-3.53,2.15-7.83,2.8-12.67,1.14-.22,1.62-.58,3.3-1.12,5.08-2.2,7.35-3.08,14.83-4.91,22.24-2.94,11.88-10.94,19.16-20.95,25.58-28.8,18.5-62.99,16.74-94.98,8.71-10.56-2.65-21.13-5.87-31.31-9.91-3.7-1.47-7.36-3.04-10.94-4.74-4.52-2.14-8.39-4.56-11.65-7.51-4.23-3.83-7.43-8.57-9.66-14.8-12.99-36.35-.47-73.98-4.18-111.41-1.89-19.06-6.8-37.73-7.09-56.94-.06-4.06.08-8.08.34-12.09.99-15.18,3.89-30.05,5.85-45.23,0-.01,0-.03,0-.04,2.38-18.44,5.09-37.72,2.75-56.3-2.02-16.12-11.67-28.19-17.14-42.99-5.9-15.97-6.17-31.77-4.79-48.51,1.61-19.57,2.52-39.18,4.4-58.73,1.89-19.6,3.81-39.91,2.89-59.6-.9-19.48-7.28-37.48-9.69-56.64,0-.06-.01-.11-.02-.17.17-.56.35-1.11.52-1.68,1.23-4.12,2.85-10.89,7.73-12.01,9.85-2.26,21.02,14.73,27.08,20.44,2.68,2.52,5.36,5.01,8.04,7.49-3.82-10.95-6.92-22.17-10.34-33.22-3.27-10.56-6.48-22.5-11.86-32.89-3.78-2.64-7.93-4.61-12.57-5.48-15.9-2.99-26.57,8.99-29.09,23.6Z"/>
      <path class="cls-4" d="M1117.82,1259.8c-4.66-13.5-7.12-27.54-6.03-41.84,1.17-15.36,9.36-28.97,11.59-44.1,2.39-16.16-4.45-28.98-9.55-43.75-5.27-15.26-6.1-31.03-6.63-47.03-.55-16.68-3.23-33.17-3.2-49.88.04-17.44,2.2-34.78,3.44-52.16,1.26-17.76-.14-35.25-1.32-52.96-1.2-18.02-2.24-36.06-3.34-54.09-2.12-34.77-6.6-69.62-11.21-104.14-4.54-34.04-10.98-67.71-19.27-101.05-7.52-30.26-21.13-62.07-13.31-93.71,5.55-22.46,25.19-32.7,45.14-41.18,20.62,5.58,43.86,2.66,63.98-4.39,15.44-5.41,30.22-14.67,37.33-30.01,6.42-13.86,7.18-29.28,5.7-44.28-2.1-21.3-7.86-41.67-12.41-62.49-1.73-7.91-2.77-15.9-3.55-23.92-8.32-11.22-16.64-22.45-24.49-34.01-.21-.31-.42-.63-.63-.94,1.03,9.02,1.86,18.06,1.93,27.3.15,18.91,3.02,37.09,6.64,55.62,2.99,15.32,5.62,30.67,5.27,46.34-.24,10.82-2.78,21.11-9.42,28.02-7.77,8.09-21.33,11.15-32.49,13.65-12.58,2.82-28.06,5.3-40.59,1.22-6.39-2.08-11.72-6.39-16.26-11.45-.02-.76-.12-1.56-.34-2.38-.98-3.76-1.95-7.39-2.85-11.02.71.14,1.43.18,2.1.09,1.86-.25,4.11-1.99,4.39-3.74.4-2.49,1.15-5.13.73-7.52-2.24-12.57-2.67-25.35-4.56-37.93-2.13-14.17-1.77-28.44-2.88-42.65-.11-1.36.5-3.3,1.48-4.15,4.97-4.31,5.58-9.23,3.34-15.17-1.61-4.28-2.7-8.78-3.71-13.25-.75-3.31-2.25-5.63-5.72-6.26-6.69-1.21-12.26-4.96-18.03-8.14-2.22-1.22-4.15-2.76-5.8-4.55-1.56-3.03-3.18-6.03-4.83-9.01.11-.65.4-1.35.78-1.71,1.44-1.34,3.16-2.37,4.81-3.56-.83-.88-1.34-1.88-2.12-2.18-6.98-2.68-11.67-7.78-15.46-13.82-.81-1.44-1.63-2.89-2.46-4.35-.67-1.33-1.31-2.67-2.01-3.98-.96-1.79-1.91-3.61-3.09-5.26-.05-.07-.1-.12-.15-.19-5.69-10.51-10.86-21.46-13.25-32.97-.04-2.61-.09-5.21-.18-7.81-1.29-37.14-8.86-73.79-19.93-109.18-6.25-19.98-13.89-39.52-22.03-58.79-6.49-15.36-16.9-31.65-16.04-47.74.57-10.59,4.56-18.74,13.15-22.07-1.13-.58-2.28-1.14-3.46-1.68-8.02-3.64-16.32-6.32-24.8-8.31-9.18,11.11-12.88,27.1-12.08,41.25,1.02,18,10.24,35.39,16.91,51.83,15.53,38.27,28.72,78.28,36.81,118.83,3.71,18.59,6,37.32,6.77,56.27.76,18.47.36,36.96,2.77,55.33,2.57,19.63,8.11,37.7,17.09,55.35,8.66,17.02,11.98,35.79,18.14,53.73,5.07,14.74,12.27,29.16,19.71,42.85,7.4,13.62,16.18,27.51,27.71,38.02,1.83,1.67,3.73,3.19,5.68,4.6-13.49,6.59-25.69,15.28-33.63,28.19-14.36,23.34-12.22,55.51-5.49,80.94,9.21,34.84,17.77,69.35,24,104.89,6.33,36.14,11.58,72.28,14.94,108.82,1.74,18.86,1.82,37.56,1.14,56.47-.68,18.89-.36,37.81-1.08,56.67-.69,17.95-3.35,35.78-5.05,53.65-.82,8.63-1.45,17.3-1.41,25.97.04,9.45,1.64,18.66,2.67,28.03,1.86,16.91,2.96,34.13,6.87,50.73,1.94,8.25,4.75,16.22,8.29,23.91,3.17,6.86,7.79,13.56,9.56,20.97,3.61,15.13-8.33,31.45-10.89,46.13-2.68,15.36-1.85,30.99,1.61,46.16,7.04,30.83,27.1,55.67,48.21,78.37.12.03.23.06.35.09,10.42,2.31,21.32,2.42,31.61,0-3.24-2.87-6.36-5.87-9.4-8.96-18.3-18.64-37.6-39.57-46.24-64.64Z"/>
      <path class="cls-4" d="M1236.9,1039.91c-3.78-6.84-8.67-13.97-15.84-17.58-8.73-4.4-18.22-1.15-24.76,5.48-13.41,13.6-12.39,33.33-7.43,50.39,5.32,18.31,12.69,35.22,15.39,54.32,3.01,21.28,4.13,42.74,8.17,63.89,2.38,12.45,6.03,24.61,9.35,36.82,3.1,11.39,6.27,22.85,10.65,33.83.92,2.3,1.91,4.58,2.96,6.84,4.66-5.8,9.93-11.03,16.38-14.71-4.91-12.92-7.54-26.71-10.6-40.2-4.36-19.25-6.7-38.12-8.62-57.75-1.92-19.58-4.04-39.31-9.92-58.16-4.69-15.02-14.08-29.21-15.95-45.02-.64-5.4-.18-14.5,5.34-17.59.38-.21.6-.37.72-.48.04,0,.08.01.13.02,1.19.13,2.78,2.32,3.47,3.11,2.61,3.03,4.58,6.68,6.48,10.18,17.6,32.57,22.09,70.48,32.22,105.65,9.96,34.56,23.87,67.78,35.46,101.76,5.46-.49,10.73-1.71,15.8-3.5-10.19-34.35-23.09-67.73-33.26-102.14-11.33-38.39-16.55-79.66-36.15-115.16Z"/>
      <path class="cls-6" d="M207.58,1035.67c1.23-.47,2.45-.95,3.67-1.46,5.34-2.24,10.31-4.91,15.02-7.9-5.12,30.46.93,63.59,5.95,93.33,2.83,16.73,4.1,33.71,7.2,50.38,3.14,16.85,8.64,33,14.67,49.01,5.93,15.75,11.13,31.76,17.09,47.5,6.17,16.3,12.65,32.5,18.21,49.02,3.15,9.37,5.66,18.98,8.91,28.31,1.12,2.32,2.23,4.64,3.32,6.97,3.69,7.89,7.11,15.91,10.6,23.9,5.43,9.81,10.69,19.71,15.84,29.67,8.33-5.69,16.68-11.33,25.12-16.84-2.78-13.97-10.44-26.37-17.4-38.68-7.47-13.22-10.28-28.6-15.8-43.57-6.82-18.5-14.75-36.56-22.07-54.86-13.66-34.14-25.8-68.23-31.04-104.74-3.14-21.85-8.04-43.21-12.79-64.75-4.7-21.3-7.84-42.63-10.65-64.24-.13-.97-.41-1.85-.81-2.65,4.81-4.11,9.47-8.49,14.13-13,6.33-6.12,12.69-11.96,20.18-16.64,8.57-5.36,17.77-9.59,26.77-14.16,12.94-6.58,25.08-14.69,36.5-23.69-.29-1.69-.54-3.4-.78-5.1-6.35-.29-12.7-.37-19.07-.13-9.78.36-19.53,1.16-29.31,1.53-1.13.04-2.27.07-3.4.09-.09.04-.18.09-.27.14-19.09,9.37-36.03,19.46-51.36,34.39-12.93,12.59-24.36,24.78-40.74,32.86-8.91,4.4-22.26,10.07-30.37,18.55-.56.25-1.1.53-1.65.83.06.28.11.57.17.85,1.98,8.84,4.82,17.47,7.52,26.11.39,1.23.73,2.47,1.09,3.71,9.74-4.03,17.48-12.16,25.91-18.56,3.05-2.32,6.32-4.28,9.65-6.17Z"/>
      <path class="cls-6" d="M452.56,1251.57c-3.57-11.87-6.85-23.85-9.22-36.03-2.15-11.04-2.65-21.97-3.38-33.15-.75-11.66-2.61-23.01-8.35-33.34-2.78-4.99-6.08-9.18-8.71-13.78-.47-1.48-1.19-2.88-2.1-4.17-.85-1.99-1.55-4.09-1.99-6.41-2.07-10.86-2.77-21.95-4.9-32.81-2.28-11.61-7.39-21.96-10.87-33.18-3.88-12.52-6.05-25.61-7.19-38.65-.95-10.87-1.03-21.96-2.4-32.83-7.14,4.17-14.64,7.96-22.04,11.69-1.54,17.82-.64,36.51,2.3,53.34,2.08,11.93,6.75,22.59,10.32,34.05,3.29,10.58,4.2,21.52,5.68,32.44.7,5.16,1.4,10.21,2.53,15.12-2.8,1.87-5.87,3.46-9.73,5.01-8.14,3.29-16.3,6.24-23.94,10.6-7.11,4.06-14.35,7.87-20.96,12.73-4.72-19.92-8.43-40.13-11.87-60.27-3.5-20.46-6.66-41.25-11.88-61.42-.5-5.55-.95-11.1-1.41-16.65-4.99,1.86-9.94,3.82-14.78,6.02-3.6,1.64-7.09,3.38-10.47,5.38.12.36.24.72.35,1.07,2.66,7.92,5.16,15.46,6.58,23.73.02.09.03.18.04.27,1.29,10.35,2.78,20.68,4.57,30.94.31,1.8.65,3.59.99,5.38.07.77.14,1.55.21,2.32,2.7,29.31,5.5,58.7,12.56,87.34,6.8,27.56,16.41,54.49,24.27,81.77,3.95,13.71,7.59,27.53,10.66,41.47,1.36,6.19,2.61,12.4,3.73,18.64.05.29.09.59.13.88-.07-.5-.1-.7.1.65.02.14.04.28.06.41,0-.04-.01-.09-.02-.15,0,.02,0,.03,0,.05.42,2.82.82,5.63,1.25,8.45,1.66,10.98,3.01,31.48,11.83,41.77,4.47-2.81,8.97-5.59,13.52-8.29,3.11-1.85,6.25-3.66,9.4-5.45-.3-.42-.63-.84-.99-1.23-.18-.33-.35-.65-.48-.93-.39-.86-.3-.43-.21-.1-.06-.21-.17-.56-.36-1.14-1.18-3.72-2.2-7.44-3.02-11.26-1.67-7.75-2.72-14.91-3.64-21.51-.22-1.56-.43-3.12-.66-4.68-.13-.87-.25-1.75-.38-2.62-.08-.66-.24-1.82-.29-2.19-1-7.26-2.18-14.5-3.49-21.71-2.41-13.21-5.3-26.33-8.47-39.37-5.94-24.36-14.18-47.99-21.12-72.03.25-.15.5-.3.76-.44,3.25-1.81,6.65-3.42,10.09-4.84,7.32-3.04,16.64-6.93,22.73-9.6,8.12-3.55,18.79-6.55,27.88-11.57,2.7,4.61,4.79,9.38,5.52,15.39,1.4,11.45,1.42,22.92,3.19,34.37,1.96,12.7,5.04,25.18,8.65,37.51,3.89,13.24,8.52,26.25,12.11,39.57,2.83,10.51,4.48,22.47,8.21,33.1,4.53-2.54,9.25-4.94,13.92-7.82,3.78-2.34,7.47-4.8,11.14-7.28-1.71-6.4-3.75-12.77-5.34-18.9-3.12-12.04-7.07-23.79-10.65-35.69Z"/>
      <path class="cls-4" d="M351.32,1329.09c.04.29.1.66.14.91-.01-.1-.03-.18-.04-.26-.03-.22-.07-.43-.1-.65Z"/>
      <path class="cls-6" d="M551.5,1155.46c-5.5-23.64-12.21-46.97-17.49-70.66-2.44-10.94-4.75-21.92-6.14-32.96-1.46-7.11-3-14.21-4.83-21.27-3.39-13.04-7.35-25.92-11.38-38.78-4-12.77-7.17-25.97-11.64-38.57-6.6-18.62-23.28-36.08-44.68-28.71-22.07,7.6-35.72,35.67-34.46,57.84.68,12.03,4.6,23.29,7.69,34.83,3.42,12.76,3.7,25.98,5.35,39.02,3.3,26.04,14.02,50.26,17.93,76.26,2.24,14.92,4.07,29.34,8.71,43.77,4.47,13.91,10.14,27.57,13.51,41.81,5.97,25.23,2.66,51.36,14.81,74.66,2.57-1.57,5.16-3.1,7.83-4.53,4.23-2.27,8.53-4.5,12.9-6.65-4.41-18.61-2.8-38.63-4.98-57.48-2.87-24.75-13.49-47.23-19.54-71.21-2.02-8-3.13-16.17-4.4-24.32,7.97-4.46,15.87-9,24.53-12.15,2.45-.89,5.29-1.92,8.24-3.13.13.45.26.9.4,1.34,8.4,27.34,19.28,53.49,24.44,81.79,3.63,19.91,5.67,39.56,14.91,57.06,6.03-3.04,12.34-5.55,18.72-8.01-1.95-6.97-3.73-14-5.43-21.02-5.56-22.86-9.67-46.04-15.01-68.95ZM503.28,1086.26c-5.09,2.44-10.44,4.31-15.55,6.71-4.88,2.3-9.15,5.15-12.95,8.42-1.87-6.42-4.02-12.77-6.33-19.05-4.21-11.41-7.23-22.14-8.56-34.26-1.41-12.8-2.39-25.79-6-38.21-2.83-9.73-7.22-19.65-7.38-29.91-.15-9.78,4.5-19.9,11.28-26.87,1.87-1.92,4.5-3.72,6.12-4.21,1.63-.49,2.51-.33,4.07.69,5.93,3.88,8.2,14.4,10.28,21.7,6.8,23.94,15.32,47.42,20.68,71.76,3.03,13.75,5.13,27.57,7.73,41.31-1.01.66-2.1,1.3-3.39,1.91Z"/>
      <path class="cls-6" d="M701.21,1092.29c-1.94-16.43-2.74-32.9-5.15-49.29-2.52-17.12-5.8-34.09-9.79-50.92-8.34-35.2-18.05-69.99-29.04-104.42-.92.19-1.84.39-2.76.62-4.65,1.18-9.25,2.51-13.85,3.87-1.52.45-3.09.85-4.67,1.23,5.78,57.31,25.23,112.4,31.25,169.78,1.59,15.18,2.93,30.51,6.1,45.46,2.06,9.71,5.51,18.77,8.93,28.03.05.14.11.29.16.43-5.57-8.02-11.48-15.85-16.19-24.04-10.94-19.02-21.82-38.78-30.76-58.82-16.25-36.47-25.1-76.12-45.8-110.61-2.93-4.88-7.02-11.74-11.98-17.93-6.23,2.22-12.44,4.52-18.53,7.12-7.72,3.3-15.18,5.99-23.46,7.49-.74.13-1.48.25-2.22.37.01,6.84,1.01,13.74,1.9,19.47,3.54,22.98,9.53,44.43,18.99,65.65,9.07,20.35,11.38,42.01,16.12,63.59,5.6,25.47,16.72,48.55,26.39,72.6,4.78,11.87,7.7,23.88,10.02,36.44,1.1,5.95,2.04,12.71,3.99,18.95,5.27-2.33,10.81-4.27,16.02-6.46,1.36-.57,2.73-1.2,4.11-1.84-.19-3.02-.44-6.02-.56-8.93-.46-10.66-1.35-21.36-3.23-31.87-3.74-20.91-13.78-39.84-20.65-59.77-6.82-19.8-10.21-40.56-14.26-61.04-3.87-19.58-14.29-36.02-20.52-54.73-3.11-9.34-5.39-18.95-7.26-28.61-.71-3.65-1.43-7.33-2-11.03,1.74,2.53,3.41,5.13,4.96,7.88,18.06,32.27,26.07,68.92,40.22,102.87,8.56,20.54,18.78,40.91,29.74,60.27,8.75,15.45,19.89,29.28,29.75,43.96,2.16,4.32,4.62,8.56,7.7,12.24.13.22.26.44.39.66,1.76,3.06,4.13,4.9,6.69,5.76,1.71,1.09,3.5,1.93,5.34,2.55,9.63-5.47,19.53-10.42,29.37-15.47,1.53-4.66,1.83-9.82,1.19-15.08-2.77-22.88-13.97-43.51-16.67-66.43Z"/>
      <path class="cls-6" d="M823.65,1030.48c-4.43-4.43-8.49-9.22-12.75-13.82-10.77-11.62-22.77-23.68-37.88-29.35-.64-.24-1.27-.45-1.89-.66,2-2.44,3.88-4.97,5.52-7.7,8-13.33,8.51-29.29,9.46-44.39,1.57-24.85.81-51.36,7.43-75.71-.26-.1-.53-.21-.8-.31-6.72-2.68-13.4-5.48-20.14-8.13-13.07,24.65-13.33,55.54-15.4,82.58-1.03,13.41-1.42,26.49-10.41,37.15-.93,1.1-1.85,2.2-2.77,3.3-4.14-13.32-8.33-26.62-12.43-39.95-7.22-23.49-14.03-47.18-21.94-70.44-7.31,1.99-14.5,4.25-21.4,7.07,5.61,49.84,24.09,98.17,38.03,146.02,6.62,22.72,11.11,45.55,15.82,68.71,2.25,11.08,4.63,22.15,7.88,32.98,2.81,9.36,5.93,20.98,12.11,29.15,7.32-4.92,14.57-9.88,21.93-14.69-2.16-7.45-5.39-14.77-7.29-22.19-2.82-10.98-4.86-22.14-6.77-33.3-3.54-20.77-7.84-41.11-13.4-61.37.58-.59,2.15-1.98,2.27-2.15.12-.03.25-.07.41-.11.19-.06.34-.11.46-.15.11.02.22.04.37.06.37.06.62.09.82.11.05.01.07.02.12.03.52.13,1.96.64,2.18.67,2.46,1.13,4.82,2.63,6.99,4.2.05.03.06.04.1.07.78.62,1.54,1.24,2.3,1.89,1.19,1.01,2.35,2.06,3.5,3.12,2.33,2.17,4.57,4.43,6.75,6.74,4.46,4.71,8.65,9.64,12.86,14.57,9.1,10.65,19.48,18.45,32.03,24.78,7.88,3.97,17.18,7.65,25.16,12.51.36-.75.73-1.49,1.08-2.25,3.87-8.19,7.2-16.63,10.86-24.91-7.25-4.23-14.99-7.8-22.24-11.52-7.16-3.67-13.6-7.24-18.94-12.58Z"/>
      <path class="cls-6" d="M994.87,900.19c-9.36-25.45-22.83-49.16-32.16-74.63-4.72-12.88-8.58-26.06-11.44-39.48-.22-1.04-.43-2.08-.65-3.13-4.92,3.18-9.8,6.41-14.66,9.67-.61,7.87-.49,15.82.59,23,2.11,14.11,9.89,26.07,15.65,38.86,3.74,8.3,6.29,17.27,9.06,25.92,8.84,27.61,16.71,55.76,21.43,84.4.11.66.51,3.29.58,3.72.21,1.5.41,2.99.59,4.49.42,3.43.76,6.87,1.01,10.31.46,6.39.49,12.72.11,19.11-.02.38-.06.77-.1,1.15-.23,1.07-.35,2.17-.58,3.24-.25,1.18-.58,2.33-.88,3.5-.11.43-.34.92-.46,1.38-.37.7-.74,1.41-1.08,2.1-.05.1-.08.17-.13.26-.05.05-.09.1-.15.15-.25.14-.55.32-.84.5-.1.02-.23.05-.35.07-.09-.02-.16-.05-.27-.07-.22-.05-.98-.11-1.6-.13-.89-.17-2.15-.4-2.55-.51-5.24-1.41-10.76-5.82-13.96-10.94-9.04-14.46-13.11-31.73-16.73-49.57-1.98-9.76-3.75-19.54-6.39-29.15-4.36-15.89-10.62-31.07-17.25-46.13-5.6-12.73-11.57-25.15-18.44-37.23-2.89-5.09-8-12.62-9.91-19.67-7.21,4.57-14.55,8.88-22.11,12.75,3.53,13.22,11.73,26.41,15.55,35.92,10.62,26.41,21.58,52.53,27.23,80.56,7.15,35.48,16.94,88.23,61.14,93.44,21.27,2.51,32.04-10.77,36.74-27.44.42-15.89.29-31.77-1.19-47.63-2.19-23.54-7.68-46.63-15.83-68.8Z"/>
      <path class="cls-4" d="M461.67,1537.2c-7.76,8.61-16.28,14.6-25.85,20.91-4.59,3.03-8.96,6.52-13.7,9.31-5.08,2.99-10.59,5.19-15.68,8.24-10.04,6.02-18.47,15.04-27.45,22.48-8.41,6.96-17.05,13.52-26.1,19.64-9.53,6.45-19.17,12.75-28.78,19.09-9.2,6.08-19.19,12.04-27.02,19.86-11.66,11.64-21.65,24.72-34.91,34.68-11.55,8.68-26.22,16-39.41,6.42-13.05-9.48-19.8-27.67-24.75-42.36-2.69-8-5.11-16.12-7.22-24.29-3.21-12.37-2.68-25.07-2.56-37.74.13-12.76-.39-25.48-4.37-37.71-3.45-10.61-8-20.8-12.38-31.05-10.03-23.48-18.64-46.57-20.94-72.16-2.45-27.23-5.34-54.48-12.95-80.82-.79-2.72-3.18-3.48-5.23-2.87-2.02.6-3.69,2.53-3.13,5.23,2.76,13.27,4.83,26.64,5.8,40.16.94,13.07.18,25.48-.88,38.51-1.95,23.87,2.93,47.73,10.71,70.18,3.69,10.65,7.55,21.24,11.33,31.86,4.46,12.53,6.38,24.37,6.74,37.65.37,13.84.44,27.77,3.83,41.29,2.24,8.91,5.4,17.71,8.63,26.3,6.68,17.75,14.65,36.99,28.73,50.26,14.11,13.3,33.2,16.99,50.93,9.12,16.64-7.39,27.54-22.71,41.71-33.53,16.38-12.51,35.21-21.41,52.87-32.09,23.74-14.36,45.53-31.36,63.91-52.14,8.97-10.15,17.45-20.13,28-28.65,10.08-8.14,20.1-17.69,28.44-27.63.94-1.12,1.37-2.33,1.43-3.52.26-4.81-5.7-9.12-9.76-4.61Z"/>
      <path class="cls-4" d="M377.22,1446.01c-3.14,1.13-6.18,2.59-9.38,3.49-1.93.54-3.59,1.21-5.18,2.44-1.52,1.18-3.33,2.02-5.09,2.84-5.32,2.47-10.69,4.81-16,7.31-2.29,1.08-4.53,2.07-7.09,2.37-4.53.53-8.42,2.83-12.4,4.86-2.92,3.52-7.35,3.71-11.26,4.82-3.19.9-6.54,1.21-9.76,2.2-3.18.97-6.46,1.77-9.75,2.24-3.76.54-6.7,2.58-9.79,4.45-.42.25-1.09.16-1.63.12-1.12-.08-2.18-.21-3.15.63-2.79,2.44-6.33,3.5-9.59,5.06-3.02,1.44-6.03,2.79-9.46,3.2-3.38.41-6.35,1.98-8.79,4.49-1.25,1.28-2.88,1.65-4.63,1.21-3.97-1-7.75-.54-11.37,1.37-3.05,1.6-6.5,1.5-9.74,2.29-2.97.73-10.24,3.03-13.03,4.37-2.53,1.21-4.96,2.47-6.98,4.51-1.61,1.63-3.76,2.4-6.04,2.61-2.84.26-5.44,1.17-7.83,2.71-.21.14-.47.63-.44.66.37.33.75.71,1.2.84.52.15,1.15.22,1.65.06,4.51-1.42,9.3-1.81,13.7-3.65,1.53-.64,3.15-1.18,4.78-1.46,2.23-.38,4.33-1.03,6.41-1.86,1.55-.62,3.14-1.29,4.77-1.48,3.13-.37,5.89-1.66,8.73-2.82,1.79-.74,3.63-1.59,5.52-1.83,3.58-.45,7.17-1.05,10.83-.73,2.22.19,4.46.16,6.7.16.83,0,1.67-.14,2.48-.34.53-.13,1-.48,1.49-.72.76-.37,1.29-1.6.81-2.08-.35-.35-.87-.73-1.33-.75-1.05-.04-2.11.14-3.89.29,1.93-1.75,3.67-2.48,5.38-3.19,2.57-1.07,5.14-2.29,7.83-2.88,2.76-.6,5.37-1.45,7.93-2.58,1.55-.68,3.16-1.11,4.88-.73,1.42.31,2.66.09,3.9-.82,3.87-2.83,8.2-5.01,12.82-5.95,3.87-.79,7.56-1.77,11.16-3.35,1.26-.55,2.69-.69,4.02-1.09,1.86-.55,3.73-1.12,5.55-1.78,1.57-.57,3.03-1.6,4.63-1.87,2.52-.44,4.87-.93,6.74-2.87.52-.54,1.49-.84,2.29-.91,3.44-.28,6.4-1.88,9.45-3.26,8.39-3.81,16.68-7.85,25.19-11.36,5.28-2.18,9.64-5.49,13.83-9.17.3-.26.37-1.09.2-1.5-.14-.33-.93-.69-1.26-.58Z"/>
      <path class="cls-4" d="M505.58,1406.43c-1.71-.92-2.36-2.11-1.69-4.09.37-1.1-.88-2.13-1.96-1.9-.54.11-1.19.12-1.59.43-2.63,2.04-5.27,4.05-8.32,5.48-.92.43-1.61,1.48-2.24,2.36-.48.66-.7,1.51-1.02,2.28-.93,2.22-2.71,3.46-4.9,4.21-1.09.38-2.16.44-3.18-.23-.69-.46-1.36-.99-2.12-1.26-.43-.16-1.17-.05-1.51.25-1.33,1.15-1.98,2.63-1.79,4.43.08.73,1.05,1.63,1.74,1.46,2.99-.76,6.04-.74,9.09-.87,2.47-.11,4.93-.65,7.39-1.03.72-.11,1.37-1.32,1.05-1.98-.35-.74-.88-1.39-1.25-2.13-.57-1.12-.2-2.26.78-2.84,2.68-1.58,5.46-2.77,8.58-2.54.92,0,1.77.1,2.58-.03.46-.07.85-.53,1.28-.81-.3-.4-.52-.95-.91-1.17Z"/>
      <path class="cls-4" d="M260.52,1457.78c-.65.87-1.16,1.86-1.63,2.85-3.3,6.94-8.35,11.52-16.23,12.78-2.96.47-5.78,1.8-7.41,2.33-2.67,1.4-4.16,2.13-5.6,2.96-.58.33-.71.97-.32,1.35.36.35.89.7,1.36.73,1.72.09,3.39-.46,4.66-1.51,2.24-1.86,4.88-2.52,7.58-3.14,1.62-.37,3.29-.52,4.89-.92,2.18-.55,4.21-1.51,5.65-3.31,3.11-3.89,6.16-7.84,9.22-11.78.16-.2.15-.53.27-.77.33-.69-.24-1.92-.99-1.95-.49-.02-1.2.07-1.44.39Z"/>
      <path class="cls-4" d="M316.13,1545.48c-3.34-2.45-6.69-4.84-11.11-5.07-1.9-.1-3.77-.91-5.72-.3-.2.06-.4.34-.48.56-.08.22-.1.56.02.74,1.11,1.68,2.74,2.75,4.54,3.46,4.12,1.62,8.28,3.12,12.45,4.6.42.15,1.24,0,1.47-.32.26-.34.06-1.03.06-1.71-.37-.61-.63-1.53-1.24-1.98Z"/>
      <path class="cls-4" d="M211.5,1550.23c-.75.27-1.38.87-2.1,1.25-.77.4-1.69.47-2.24-.21-.86-1.05-1.51-2.28-2.26-3.42-.95-1.45-2.33-2.25-3.98-2.72-1.36-.38-2.9.77-2.71,2.16.15,1.08.41,2.13.44,2.28,1.2,3.07,2.75,4.55,4.96,5.28,1.3.43,2.62.87,3.96,1.04.74.1,1.65-.16,2.32-.55,1.46-.85,2.5-2.13,2.98-3.78.07-.23.05-.65-.09-.76-.38-.28-.95-.69-1.28-.57Z"/>
      <path class="cls-4" d="M309.53,1557.08c-2.95-.4-5.93-.68-8.9-.96-.07,0-.34.59-.25.72,1.79,2.57,4.19,4.2,7.35,4.63,1.54.21,3.16-1.62,2.8-3.24-.33-.4-.63-1.1-1.01-1.16Z"/>
      <path class="cls-4" d="M336.69,1520.81c-.56-.75-1.27-1.94-2.23-2.88-.53-.51-1.48-.61-2.26-.82-.2-.05-.61.15-.71.34-.22.44-.58,1.09-.42,1.4,1.03,1.96,2.5,3.58,4.37,4.77.36.23,1.03.05,1.54-.05.11-.02.22-.5.18-.75-.07-.53-.24-1.05-.47-2.03Z"/>
      <path class="cls-4" d="M283.27,1461.27c-.65.51-.87.67-1.09.84-.52.41-.58,1.77-.09,2.22,2.06,1.94,4.95,1.38,6.1-1.16.48-1.05-.25-2.4-1.41-2.35-1.33.06-2.65.33-3.5.44Z"/>
      <path class="cls-4" d="M402.67,1493.04c-.99-.62-2.01-.75-3.14-.2-.39.26-.88.52-1.29.86-.55.45-.47,1.81.08,2.16,1.39.89,3.43.89,4.6,0,.78-.59.63-2.28-.24-2.83Z"/>
      <path class="cls-4" d="M239.38,1557.02c-1.03-.5-2.27.26-2.4,1.36-.26,2.12,1.51,3.61,3.52,2.87.4-.15.78-.74.88-1.2.11-.47-.14-1.01-.28-1.75-.48-.37-1.04-.95-1.73-1.29Z"/>
      <path class="cls-4" d="M367.91,1496.71c-.98.28-1.94.72-2.8,1.28-.28.18-.39,1-.23,1.38.17.38.74.73,1.18.8.48.07,1.01-.21,1.51-.34.43-.3.99-.51,1.26-.91.25-.37.38-1.03.22-1.42-.16-.38-.84-.87-1.15-.78Z"/>
      <path class="cls-4" d="M281.41,1508.7c-1.11.42-1.8,1.7-1.44,2.67.35.94,1.73,1.46,2.79,1.05,1.06-.41,1.79-1.75,1.45-2.69-.34-.94-1.71-1.45-2.8-1.03Z"/>
      <path class="cls-4" d="M383.76,1445.29c-.04.1.16.43.23.42,2.4-.27,3.24-.69,7.84-4.11-3.36.82-5.52,1.84-7.6,3.06-.21.12-.37.39-.47.62Z"/>
      <path class="cls-4" d="M198.9,1561.67c-1.32.18-2.63.43-3.63.6-.65.67-1.4,1.19-1.32,1.41.34.92,1.23.69,1.97.56,1.07-.19,2.15-.39,3.16-.77.26-.1.34-.85.37-1.31.01-.16-.38-.52-.55-.5Z"/>
      <path class="cls-4" d="M490.13,1435.21c-.37-.25-1.1-.31-1.45-.1-.3.18-.48.94-.36,1.33.23.72.65,1.41,1.11,2.03.45.6,1.71.55,1.99-.06.2-.44.15-.99.23-1.65-.46-.48-.91-1.13-1.53-1.55Z"/>
      <path class="cls-4" d="M315.21,1493.86c.22-.37.02-.98.01-1.72-.75.04-1.53-.07-2.2.16-.4.14-.86.81-.85,1.24,0,.38.54.95.96,1.1.81.27,1.65-.04,2.08-.77Z"/>
      <path class="cls-4" d="M478.18,1435.25c-.17.19-.36.59-.27.73.26.42.58.96,1,1.1.8.27,1.55-.06,2.09-.74.4-.51.38-1.01-.05-1.49-.91-.73-1.88-.6-2.77.4Z"/>
      <path class="cls-4" d="M230.66,217.22c3.59,2.85,5.98,6.49,7.84,10.59.28.61,1.24,1.05,1.97,1.29.88.29,2.42-.57,2.77-1.43.51-1.28,1.03-2.56,1.35-3.9.48-2.01,1.56-3.58,3.24-4.66,1.62-1.05,3.37-1.89,5.05-2.85.72-.41,1.46-.81,2.06-1.36.37-.34.48-.96.71-1.45-.1-.54-.02-1.23-.33-1.57-.93-1.01-1.9-2.06-3.05-2.76-4.1-2.49-6.27-6.15-7.02-10.8-.13-.79-.43-1.61-.88-2.27-.22-.33-1.11-.59-1.41-.41-2.11,1.27-4.17,2.64-6.21,4.02-2.3,1.55-4.62,3.08-6.83,4.75-3.25,2.45-3.67,4.23-2.32,7.92.68,1.86,1.53,3.67,3.06,4.88Z"/>
      <path class="cls-4" d="M253.09,298.16c-.5.3-.4,1.64.1,2.31.33.44.59.96.98,1.34,3.02,2.97,10.52,6.6,14.81,7.03,1.04.1,2.18-.25,3.2-.6,1.29-.44,1.97-2.36,1.39-3.49-1.41-2.77-3.13-5.24-6.21-6.42-1.03-.4-2.01-.92-3.58-1.65-1.38.34-2.49.49-3.52.88-1.92.72-3.78.53-5.69.03-.42-.11-1.02.3-1.48.57Z"/>
      <path class="cls-4" d="M283.89,279.55c-.25.78-.49,1.56-.87,2.77.07,1.21.1,2.83.28,4.44.09.83,1.52,2.02,2.38,1.93.76-.08,1.62-.32,2.2-.79.6-.48,1.07-1.26,1.31-2,.96-3-.22-5.29-2.57-7.15-.78-.61-2.42-.15-2.73.8Z"/>
      <path class="cls-4" d="M282,269.78c1.31.4,2.69-.42,3.11-1.82.53-1.82-.26-3.64-1.72-3.94-1.65-.34-3.35.61-3.85,2.15-.44,1.38.72,3.08,2.46,3.61Z"/>
      <path class="cls-4" d="M1183.94,763.2c-.4.7-1.07,1.24-1.65,1.88-1.7.05-3.35.1-5.74.17-.09,1.3-.1,2.13-.22,2.95-.44,2.9-2.4,4.43-5.18,4.16-2.82-.28-5.41-1.21-7.94-2.47-1.97-.98-3.41-.01-3.32,2,.08,1.74.16,3.49.26,5.23h23.69c.05-.24.13-.49.17-.73.32-1.89,1.17-3.33,2.68-4.23v-11.73c-1.14.66-2.04,1.58-2.73,2.78Z"/>
      <path class="cls-4" d="M1030.25,678.81c-.92-.62-1.83-1.3-2.85-1.73-4.1-1.74-8.1-3.91-12.38-4.92-4.41-1.05-8.4-2.94-12.58-4.47-4.7-1.71-9.4-3.44-13.16-4.82-1.59-.13-2.15-.21-2.7-.2-.26,0-.59.11-.75.29-.32.35-.14.81.48,1.12,1.99,1.01,4.1,1.8,5.96,3,3.8,2.46,7.73,4.45,12.27,5.09.8.11,1.56.58,2.32.9.91.38,1.63,2.17.99,2.83-1.96,2.02-2.66,4.05-1.03,6.7.69,1.13.66,2.68,1.06,4.01.65,2.22,2.78,3.85,5.05,3.61,3.05-.32,6.09-.67,9.17-.51.77.04,1.64-.38,2.35-.78,2.71-1.54,5.01-3.52,6.52-6.33.59-1.11.32-3.1-.7-3.8Z"/>
      <path class="cls-4" d="M1039.7,683.74c-.17-.05-.54.22-.67.43-1.27,1.95-1.22,3.37.2,5.25.14.19.52.32.76.28.24-.04.51-.28.63-.51.26-.48.43-1.01.83-1.98-.09-.64-.13-1.73-.43-2.75-.1-.35-.84-.57-1.32-.73Z"/>
      <path class="cls-4" d="M991.14,691.74c.23-.03.42-.3.64-.46,0-.24.07-.53-.03-.74-.63-1.31-1.7-1.89-3.15-1.7-.24.03-.53.22-.64.43-.1.2-.08.55.02.77.63,1.32,1.7,1.9,3.15,1.72Z"/>
      <path class="cls-5" d="M208.04,851.3c0-4.26-.47-5.54-4.67-6.36-4.46-.87-13.26-3.03-15.9,1.6-.02.46-.08.95-.22,1.45-2.42,9.28-1.43,18.93-1.21,28.41.19,7.88-2.56,17.7-.03,25.26,1.85,5.53,8.72,8.31,14.18,7.24,7.75-1.51,8.2-10.77,8.68-17.22.69-9.26-.04-18.55-.61-27.79-.26-4.25-.23-8.35-.23-12.59Z"/>
      <path class="cls-5" d="M277.36,851.3c0-4.26-.47-5.54-4.67-6.36-4.46-.87-13.26-3.03-15.9,1.6-.02.46-.08.95-.22,1.45-2.42,9.28-1.43,18.93-1.21,28.41.19,7.88-2.56,17.7-.03,25.26,1.85,5.53,8.72,8.31,14.18,7.24,7.75-1.51,8.2-10.77,8.68-17.22.69-9.26-.04-18.55-.61-27.79-.26-4.25-.23-8.35-.23-12.59Z"/>
      <path class="cls-5" d="M322.42,857.6c8.36-1.02,10.09-7.15,10.44-12.41-.21-.15-.42-.32-.62-.49-6.8-5.97-16.9-.32-18.26,6.26-.8,3.89,2.67,7.35,8.43,6.65Z"/>
      <path class="cls-3" d="M399.28,1202.98c16.79,0,34.44-7.31,46.32-19.18,11.36-11.36,19.92-30,19.18-46.32s-6.32-34.51-19.18-46.32c-12.82-11.76-28.57-19.18-46.32-19.18-16.79,0-34.44,7.31-46.32,19.18-11.36,11.36-19.92,30-19.18,46.32s6.32,34.51,19.18,46.32c12.82,11.76,28.57,19.18,46.32,19.18h0Z"/>
      <path class="cls-5" d="M320.33,941.35c6.37-.24,12.72-.16,19.07.13,3.26.15,6.52.34,9.77.62,7.4-.36,14.79-.74,22.18-1.18.87-.69,1.3-1.67,1.37-2.65,1.33-2.91,1.21-6.52,1.08-9.59-.03-.79-.02-1.64-.02-2.51,9.39-5.89,16.48-13.69,20.55-23.71,4.65-11.45,9.2-25.55,5.12-37.69-3.73-11.09-8.65-22.36-16.11-31.63-3.12-3.88-8.71-8.25-9.47-13.12-.68-4.37.89-9.08-1.53-13.07-.35-1.26-1.39-2.38-3.12-2.5-16.89-1.14-33.84-.15-50.76-1.23-9.92-.63-19.65.02-29.37.86-2.44-.3-4.89-.56-7.35-.69-8.85-.46-17.64-.04-26.48.35-17.92.81-35.78,1.52-53.72,1.26-8.65-.13-17.3-.03-25.95.33-7.03.3-15.12.16-21.89,2.19-.06.02-.1.05-.16.06-.95.15-1.82.65-2.32,1.54-.04.08-.07.16-.12.24-.27.4-.47.82-.6,1.28-1.17,2.89-1.15,5.7-.88,8.74.05,1.66.24,3.33.46,4.91.05.66.09,1.33.12,2-5.95,2.86-10.77,8.7-14.24,13.65-5.55,7.94-9.35,17.34-10.27,26.87-1.07,11.13,2.38,22.26,7.76,32.05,2.66,4.84,5.8,9.53,9.73,13.53,2.55,2.6,5.8,6.03,9.37,7.95-.4,2.02-.23,4.21-.13,6.26.19,3.97.31,7.96.68,11.92.04.46.17.86.35,1.22,8.93.37,17.86.89,26.8,1.16,1.08.03,2.01.28,2.8.68,7.56.5,15.07,1.85,22.69,2.03,18.77.42,37.49-.52,56.24-.89,8.55-.17,17.08.33,25.63.2,1.13-.02,2.27-.04,3.4-.09,9.78-.37,19.53-1.17,29.31-1.53ZM344.83,835.5c.79.7,1.34,1.43,1.69,2.17,2.45.97,4.25,2.78,4.23,5.45-.11,13.18-1.57,26.3-2.6,39.45-.5,6.33-1.08,12.67-1.31,19.01-.13,1.5-.27,3-.46,4.45-.48,3.68-.88,7.31-.93,10.93-2.24.16-4.5.32-6.82.26-3.14-.08-6.24-.24-9.32-.15-1.2-3.96-.51-8.09-.34-12.13.27-6.57.65-13.12,1.17-19.69.43-5.41.92-10.81,1.38-16.21-1.71.52-3.53.95-5.51,1.25-14.03,2.14-27.57-4.87-29.65-15.2-3.72-18.48,29.72-36.05,48.47-19.58ZM209.26,918.41c-12.44,7.12-30.89.48-34.97-13.5-2.23-7.65-.85-15.97-.48-23.95-.25-.7-.37-1.48-.32-2.39.75-11.95-2.16-26.19,3-37.42,3.84-8.35,11.91-9.74,20.28-9.07,7.35.59,17.11.92,21.28,8.14,3.95,6.84,1.97,17.17,2.46,24.76,1,15.66,5.29,43.98-11.25,53.44ZM236.83,914.49c-.25.75-.66,1.41-1.26,1.96l-.45.45c-.76.75-1.65,1.28-2.69,1.57-.54.07-1.08.14-1.62.22-1.1,0-2.12-.28-3.07-.83-.41-.32-.82-.63-1.23-.95-.59-.55-1.01-1.2-1.26-1.96-.38-.73-.56-1.51-.52-2.34-.03-.84.14-1.62.52-2.34.25-.75.66-1.41,1.26-1.96l.45-.45c.76-.75,1.65-1.28,2.69-1.57.54-.07,1.08-.15,1.62-.22,1.1,0,2.12.28,3.07.83.41.32.82.63,1.23.95.59.55,1.01,1.2,1.26,1.96.38.72.56,1.51.52,2.34.03.84-.14,1.62-.52,2.34ZM278.58,918.41c-12.44,7.12-30.89.48-34.97-13.5-2.23-7.65-.85-15.97-.48-23.95-.25-.7-.37-1.48-.32-2.39.75-11.95-2.16-26.19,3-37.42,3.84-8.35,11.91-9.74,20.27-9.07,7.35.59,17.11.92,21.28,8.14,3.95,6.84,1.97,17.17,2.46,24.76,1,15.66,5.29,43.98-11.25,53.44Z"/>
      <path class="cls-4" d="M235.58,907.84c-.41-.32-.82-.63-1.23-.95-.95-.55-1.97-.83-3.07-.83-.54.07-1.08.14-1.62.22-1.03.29-1.93.81-2.69,1.57l-.45.45c-.59.55-1.01,1.2-1.26,1.96-.38.73-.56,1.51-.52,2.34-.03.84.14,1.62.52,2.34.25.75.66,1.41,1.26,1.96.41.32.82.63,1.23.95.95.55,1.97.83,3.07.83.54-.07,1.08-.14,1.62-.22,1.03-.29,1.93-.81,2.69-1.57l.45-.45c.59-.55,1.01-1.2,1.26-1.96.38-.73.56-1.51.52-2.34.03-.84-.14-1.62-.52-2.34-.25-.75-.66-1.41-1.26-1.96Z"/>
      <path class="cls-4" d="M289.83,864.97c-.48-7.59,1.49-17.92-2.46-24.76-4.17-7.22-13.93-7.55-21.28-8.14-8.36-.67-16.44.73-20.27,9.07-5.16,11.23-2.26,25.47-3,37.42-.06.91.07,1.7.32,2.39-.37,7.99-1.75,16.31.48,23.95,4.08,13.98,22.53,20.62,34.97,13.5,16.54-9.47,12.25-37.78,11.25-53.44ZM278.2,891.69c-.48,6.46-.93,15.71-8.68,17.22-5.46,1.07-12.33-1.71-14.18-7.24-2.53-7.56.22-17.38.03-25.26-.23-9.47-1.22-19.13,1.21-28.41.13-.51.2-.99.22-1.45,2.63-4.63,11.43-2.48,15.9-1.6,4.2.82,4.67,2.1,4.67,6.36,0,4.24-.04,8.35.23,12.59.58,9.25,1.3,18.53.61,27.79Z"/>
      <path class="cls-4" d="M218.05,840.2c-4.17-7.22-13.93-7.55-21.28-8.14-8.36-.67-16.44.73-20.28,9.07-5.16,11.23-2.26,25.47-3,37.42-.06.91.07,1.7.32,2.39-.37,7.99-1.75,16.31.48,23.95,4.08,13.98,22.53,20.62,34.97,13.5,16.54-9.47,12.25-37.78,11.25-53.44-.48-7.59,1.49-17.92-2.46-24.76ZM208.88,891.69c-.48,6.46-.93,15.71-8.68,17.22-5.46,1.07-12.33-1.71-14.18-7.24-2.53-7.56.22-17.38.03-25.26-.23-9.47-1.22-19.13,1.21-28.41.13-.51.2-.99.22-1.45,2.63-4.63,11.43-2.48,15.9-1.6,4.2.82,4.67,2.1,4.67,6.36,0,4.24-.04,8.35.23,12.59.58,9.25,1.3,18.53.61,27.79Z"/>
      <path class="cls-4" d="M326.01,870.28c1.98-.3,3.8-.74,5.51-1.25-.46,5.4-.95,10.81-1.38,16.21-.52,6.57-.89,13.12-1.17,19.69-.17,4.04-.86,8.17.34,12.13,3.08-.1,6.18.06,9.32.15,2.32.06,4.58-.1,6.82-.26.05-3.62.44-7.26.93-10.93.19-1.45.33-2.94.46-4.45.23-6.34.81-12.68,1.31-19.01,1.04-13.15,2.5-26.27,2.6-39.45.02-2.67-1.77-4.48-4.23-5.45-.35-.74-.9-1.47-1.69-2.17-18.75-16.47-52.19,1.1-48.47,19.58,2.08,10.33,15.62,17.34,29.65,15.2ZM313.99,850.95c1.35-6.58,11.46-12.23,18.26-6.26.2.18.41.34.62.49-.36,5.27-2.08,11.4-10.44,12.41-5.76.7-9.23-2.76-8.43-6.65Z"/>
      <path class="cls-6" d="M507.21,871.59c1.68,2.29,3.55,4.46,5.64,6.48,17.61,17.05,46.72,17.33,65.95,3.01,9.65-7.19,17.36-17.74,22.38-29.53-7.12,6.43-16.03,9.83-25.6,7.77-8.69.48-17.14-2.81-23.05-11.76-.48-.73-.9-1.49-1.32-2.25-7.44-7.58-10.95-18.91-6.87-30.01-.07-5.1.6-10.18,2.1-14.97,4.1-13.08,16.11-20.61,27.97-20.27,1.58-.56,3.2-1.02,4.8-1.4,2.33-.55,4.71-.53,6.87.05.52,0,1.04.01,1.56.04-4.34-2.94-9.44-5.29-15.37-6.87-20.78-5.54-46.67.85-60.13,18.22-11.04,14.24-17.32,33.35-16.63,51.38.44,11.53,4.44,22.21,11.69,30.12Z"/>
      <path class="cls-4" d="M579.22,778.67c-1.61.38-3.22.85-4.8,1.4-11.86-.34-23.87,7.18-27.97,20.27-1.5,4.78-2.18,9.86-2.1,14.97-4.08,11.1-.57,22.43,6.87,30.01.42.76.84,1.52,1.32,2.25,5.91,8.95,14.36,12.23,23.05,11.76,9.57,2.05,18.48-1.35,25.6-7.77,18.09-16.34,24.6-52.26.93-68.06-4.61-3.08-9.53-4.53-14.46-4.74-.52-.02-1.04-.04-1.56-.04-2.17-.58-4.54-.6-6.87-.05Z"/>
      <path class="cls-6" d="M645.57,828.55c1.68,2.29,3.55,4.46,5.64,6.48,17.61,17.05,46.72,17.33,65.95,3.01,9.65-7.19,17.36-17.74,22.38-29.53-7.12,6.43-16.03,9.83-25.6,7.77-8.69.48-17.14-2.81-23.05-11.76-.48-.73-.9-1.49-1.32-2.26-7.44-7.58-10.95-18.91-6.87-30.01-.07-5.1.6-10.18,2.1-14.97,4.1-13.08,16.11-20.61,27.97-20.27,1.58-.56,3.2-1.02,4.8-1.4,2.33-.55,4.71-.53,6.87.05.52,0,1.04.02,1.56.04-4.34-2.94-9.44-5.29-15.37-6.87-20.78-5.54-46.67.85-60.13,18.22-11.04,14.24-17.32,33.35-16.63,51.38.44,11.53,4.44,22.21,11.69,30.12Z"/>
      <path class="cls-4" d="M717.57,735.63c-1.61.38-3.22.85-4.8,1.4-11.86-.34-23.87,7.18-27.97,20.27-1.5,4.78-2.18,9.86-2.1,14.97-4.08,11.1-.57,22.43,6.87,30.01.42.76.84,1.52,1.32,2.26,5.91,8.95,14.35,12.23,23.05,11.76,9.57,2.05,18.48-1.35,25.6-7.77,18.09-16.34,24.6-52.26.93-68.06-4.61-3.08-9.53-4.53-14.46-4.74-.52-.02-1.04-.04-1.56-.04-2.17-.58-4.54-.6-6.87-.05Z"/>
    </g>
    <g id="Layer_2" data-name="Layer 2">
      <path class="cls-3" d="M840.82,952.7c-11.2,15.03-23.11,29.53-35.67,43.44-12.61,13.96-25.87,27.32-39.73,40.03-7.81,7.16-15.81,14.12-23.99,20.86l3.93,3.03c7.83-10.51,19.61-17.76,32.42-20.35l-3.08-3.08c-4.71,13.5-14.36,25.05-26.73,32.19l3.67,1.49c-3.72-14.24-2.83-29.36,2.37-43.12.55-1.46-.89-3.27-2.41-3.16-17.45,1.26-34.96,1.39-52.43.38-3.21-.19-3.2,4.82,0,5,17.46,1.01,34.98.88,52.43-.38l-2.41-3.16c-5.51,14.55-6.3,30.73-2.37,45.78.41,1.57,2.29,2.29,3.67,1.49,13.53-7.81,23.89-20.45,29.03-35.18.67-1.93-1.35-3.42-3.08-3.08-14.15,2.86-26.81,11.1-35.41,22.65-.73.99-.26,2.55.64,3.23,1.06.79,2.29.62,3.28-.2,14.63-12.06,28.69-24.8,42.11-38.19,13.37-13.33,26.11-27.29,38.17-41.83,6.85-8.26,13.48-16.71,19.9-25.32.81-1.08.18-2.79-.9-3.42-1.27-.75-2.61-.19-3.42.9h0Z"/>
      <path class="cls-3" d="M398.06,978.54c-42.86,12.3-86.76,24.06-131,30.11l15.15-2.04c-17.53,2.3-35.21,3.22-52.8,1.02l15.15,2.04c-10.54-1.45-20.78-4.02-30.63-8.07,4.54,1.92,9.08,3.83,13.62,5.75-2.6-1.11-5.14-2.31-7.66-3.59,6.82,26,13.63,51.99,20.45,77.99.96-1.93,2.04-3.72,3.28-5.47l-8.91,11.54c1.79-2.32,3.76-4.34,6.02-6.21-3.85,2.97-7.69,5.94-11.54,8.91,3.01-2.32,6.23-4.17,9.7-5.7l-13.62,5.75c5.33-2.19,10.86-3.52,16.57-4.3l-15.15,2.04c8.56-1.03,17.14-.83,25.68.27l-15.15-2.04c16.98,2.35,33.91,5.85,51.05,6.77,21.62,1.15,41.94-3.96,61.19-13.45,3.85-2.97,7.69-5.94,11.54-8.91l8.91-11.54c6.49-11.08,8.45-23.77,6.76-36.35-.02-5.14-1.31-9.94-3.89-14.38-1.35-4.83-3.8-9.02-7.33-12.58-7.67-9.93-17.39-16.73-29.61-20.43-22.72-6.88-45.45-13.77-68.17-20.65l-30.31,109.93c18.66,4.81,38.06,7.59,57.28,8.72s38.41-1.1,57.78-3.71l13.62-5.75c3.85-2.97,7.69-5.94,11.54-8.91l8.91-11.54c4.17-6.54,6.42-13.61,6.76-21.19,1.36-5.05,1.36-10.1,0-15.15-.02-5.14-1.31-9.94-3.89-14.38-4.44-10.51-12.59-22.27-23.32-27.26-18.47-8.58-36.94-17.16-55.41-25.73-14.64,34.73-29.28,69.45-43.92,104.18,41.14,5.8,81.36,16.86,119.7,32.89l-13.62-5.75c9.56,4.04,18.98,8.36,28.28,12.98l-11.54-89.52c-21.36,24.57-42.72,49.14-64.09,73.71-6.38,7.33-12.04,15.66-14.66,25.15-3.42,12.42-2.07,25.4,2.87,37.11,3.95,9.37,9.5,16.58,17.55,22.8,9.46,7.31,22.22,13.04,34.54,12.24,14.8-.96,29.6-1.92,44.4-2.88-18.32-24.05-36.64-48.1-54.96-72.15-.82,3.26-1.87,6.4-3.13,9.52l5.75-13.62c-4.63,10.65-11.48,19.99-18.28,29.34s-14.09,19.31-21.38,28.78l8.91-11.54c-16.71,21.59-34.77,42.19-56.31,59.11,3.85-2.97,7.69-5.94,11.54-8.91-12.47,9.63-25.97,17.72-40.47,23.89l13.62-5.75c-11.34,4.68-23.08,8.09-35.23,9.87l15.15-2.04c-10.43,1.39-20.88,1.53-31.32.21l15.15,2.04c-5.66-.8-11.18-1.92-16.49-4.06l13.62,5.75c-2.28-1.03-4.37-2.19-6.4-3.64,3.85,2.97,7.69,5.94,11.54,8.91-1.55-1.25-2.9-2.57-4.18-4.1l8.91,11.54c-1.18-1.63-2.12-3.27-2.95-5.1,1.92,4.54,3.83,9.08,5.75,13.62-.89-2.34-1.47-4.65-1.85-7.11l2.04,15.15c-.51-4.6-.27-9.13.33-13.71l-2.04,15.15c2.19-14.49,6.56-28.66,12.22-42.15l-5.75,13.62c6.28-14.63,14.27-28.38,23.9-41.06l-8.91,11.54c5.03-6.51,10.43-12.68,16.23-18.51-18.49,4.89-36.97,9.77-55.46,14.66l1.59.67-13.62-5.75c12.71,5.5,24.62,12.48,35.65,20.86-3.85-2.97-7.69-5.94-11.54-8.91,11.69,9.07,22.01,19.56,31.06,31.25-2.97-3.85-5.94-7.69-8.91-11.54,10.9,14.35,19.69,30.05,26.78,46.6l-5.75-13.62c5.56,13.23,9.85,26.9,11.87,41.13l-2.04-15.15c1.1,8.59,1.33,17.16.32,25.77l2.04-15.15c-.94,6.86-2.66,13.45-5.34,19.83l5.75-13.62c-1.1,2.45-2.31,4.82-3.65,7.15l-5.75,13.62c-2.38,7.58-2.71,15.15-1.02,22.73,1.61,11.96,6.52,24.32,15.68,32.73,7.28,6.68,15.75,11.62,25.15,14.66,7.58,2.38,15.15,2.71,22.73,1.02,7.59-.34,14.65-2.6,21.19-6.76,7.36-3.4,14.73-6.8,22.09-10.2-23.02-29.84-46.05-59.68-69.07-89.52-7.08,7.66-9.54,11.61-13.13,20.12-1.17,2.76-2.59,5.45-3.34,8.34-.59,2.29-2.19,13.21-2.13,15.68.32,12.2,3.23,24.83,9.92,35.21,8.94,13.87,21.91,24.31,37.78,29.18,13.03,3.99,26.04,3.28,39.2.43,8.62-1.87,16.64-6.3,24.61-10.02,4.33-2.02,8.66-4.06,12.98-6.1,8.36-3.94,16.71-7.91,25.05-11.9,33.93-16.23,67.66-32.85,101.21-49.86,67.37-34.16,133.96-69.86,199.68-107.09,36.88-20.89,73.49-42.27,109.83-64.1-23.02-29.84-46.05-59.68-69.07-89.52-14.22,12.22-28.44,24.45-42.67,36.67,29.84,23.02,59.68,46.05,89.52,69.07,9.82-13.22,19.64-26.45,29.46-39.67l5.75-13.62c2.38-7.58,2.71-15.15,1.02-22.73-1.61-11.96-6.52-24.32-15.68-32.73-7.28-6.68-15.75-11.62-25.15-14.66-13.78-4.46-31.61-1.35-43.92,5.75-59.68,34.41-119.36,68.83-179.04,103.24,26,26,51.99,51.99,77.99,77.99,10.25-23.85,23.44-46.27,39.29-66.83-2.97,3.85-5.94,7.69-8.91,11.54,4.61-5.91,9.41-11.64,14.41-17.22,9.65-10.76,17.37-25.32,16.69-40.31-.58-12.87-4.32-24.29-12.24-34.54-7.28-9.42-17.67-17.71-29.61-20.43-14.52-3.31-31.07-2.68-43.92,5.75-28.27,18.54-56.54,37.07-84.81,55.61,26,26,51.99,51.99,77.99,77.99,6.7-14.42,13.39-28.85,20.09-43.27,4.24-9.13,7.78-18.52,7.78-28.77,0-12.69-4.57-24.62-12.24-34.54-6.22-8.05-13.43-13.6-22.8-17.55-12.35-5.21-23.85-5.5-37.11-2.87-46.27,9.17-91.48,26.82-132.26,50.45,26,26,51.99,51.99,77.99,77.99,7.32-11.64,15.17-22.91,23.56-33.8l-8.91,11.54c11.37-14.64,23.65-28.5,36.82-41.55,9.9-9.82,17.33-26.17,16.69-40.31-.58-12.87-4.32-24.29-12.24-34.54-7.28-9.42-17.67-17.71-29.61-20.43-13.91-3.17-32.01-3.3-43.92,5.75-20.27,15.39-40.53,30.78-60.8,46.17,23.02,29.84,46.05,59.68,69.07,89.52,10.82-8.84,21.64-17.69,32.46-26.53l-80.61-80.61c-29.71,35.34-57.69,72.26-83.36,110.64l-5.75,13.62c-2.38,7.58-2.71,15.15-1.02,22.73,1.61,11.96,6.52,24.32,15.68,32.73,7.28,6.68,15.75,11.62,25.15,14.66,7.58,2.38,15.15,2.71,22.73,1.02,7.59-.34,14.65-2.6,21.19-6.76,10.17-4.49,20.33-8.98,30.5-13.47-19.18-32.81-38.36-65.62-57.54-98.44-23.89,17.28-48.68,33.25-74.29,47.85,27.91,21.46,55.82,42.91,83.73,64.37.89-2.19,1.79-4.38,2.7-6.56-1.92,4.54-3.83,9.08-5.75,13.62,16.37-38.7,37.67-75.13,63.36-108.39-2.97,3.85-5.94,7.69-8.91,11.54,12.51-16.08,28.23-31.05,36.84-49.66,7.18-15.5,12.3-31.55,11.18-48.94-.85-13.21-3.5-25.92-7.72-38.38-6.52-19.27-14.67-38.28-24.54-56.08s-22.78-35.15-36.11-51.28c-5.16-5.56-11.28-9.49-18.34-11.79-6.79-3.57-14.11-5.21-21.96-4.91-12.87.58-24.29,4.32-34.54,12.24-9.42,7.28-17.71,17.67-20.43,29.61-3.51,15.41-1.55,29.78,5.75,43.92,22,42.64,65.39,71.72,110.71,84.51,48.04,13.56,99.32,8.54,146.66-5.39,24.52-7.22,48.25-16.83,71.9-26.46,7.42-1.76,13.88-5.16,19.38-10.2,6.21-4.02,11.1-9.35,14.68-15.99l5.75-13.62c2.38-7.58,2.71-15.15,1.02-22.73-1.61-11.96-6.52-24.32-15.68-32.73-10.78-9.9-25.21-17.56-40.31-16.69-27.77,1.59-55.58.55-83.16-3.07l15.15,2.04c-24.43-3.32-48.5-8.63-72.04-15.94l-15.15,111.96c88.86,6.75,177.8,1.68,265.71-12.61,5.33-.87,10.88-1.45,16.04-3.1,16.94-5.42,31.85-15.97,41.02-31.46,7.65-12.92,9.24-23.89,10.76-38.49.49-4.67.6-9.36,1.17-14.02-.68,5.05-1.36,10.1-2.04,15.15,1.22-8.69,3.58-17.05,6.9-25.17l-5.75,13.62c5.11-12.06,12.08-23.1,20.01-33.49-2.97,3.85-5.94,7.69-8.91,11.54,6.57-8.49,13.7-16.51,21.12-24.26s14.35-15.57,22.52-21.92c-3.85,2.97-7.69,5.94-11.54,8.91,1.23-.86,2.41-1.58,3.75-2.26-4.54,1.92-9.08,3.83-13.62,5.75,1.41-.57,2.65-.94,4.15-1.22l-15.15,2.04c1.23-.1,2.31-.1,3.54.02-5.05-.68-10.1-1.36-15.15-2.04,1.14.22,2.12.5,3.21.92l-13.62-5.75c1.04.51,1.94,1.04,2.88,1.7-3.85-2.97-7.69-5.94-11.54-8.91,1.57,1.26,2.87,2.65,4.11,4.23-2.97-3.85-5.94-7.69-8.91-11.54,1.77,2.5,3.15,5.11,4.36,7.92-1.92-4.54-3.83-9.08-5.75-13.62,4.87,12.18,6.35,25.9,8.94,38.7,2.97,14.66,5.94,29.32,8.91,43.99,2.97,14.66,5.94,29.32,8.91,43.99s6.52,29.15,8.75,43.84l-2.04-15.15c.31,2.68.4,5.22.06,7.89l2.04-15.15c-.17,1-.44,1.98-.81,2.93,1.92-4.54,3.83-9.08,5.75-13.62-.38.96-.88,1.85-1.49,2.68,2.97-3.85,5.94-7.69,8.91-11.54-.53.71-1.12,1.35-1.79,1.93,3.85-2.97,7.69-5.94,11.54-8.91-1.07.83-2.07,1.45-3.28,2.05l13.62-5.75c-1.69.67-3.35,1.11-5.15,1.42l15.15-2.04c-4.97.6-9.84.07-14.77-.59l15.15,2.04c-16.25-2.37-31.84-7.33-46.97-13.62l13.62,5.75c-17.42-7.37-34.1-16.29-50.83-25.07-20.29-10.64-41.32-22.16-63.37-28.51-18.11-5.22-36.83-5.82-55.2-1.82-17.41,3.79-31.8,13.67-45.12,24.95-10.12,8.57-18.11,19.91-26.06,30.34-5.61,7.37-10.75,15.06-15.31,23.12-12.27,21.67-21.86,45.65-27.12,70.03-2.12,9.8-2.69,20.54,0,30.31,3.3,12,10.7,22.09,20.43,29.61,18.47,14.27,42.77,15.43,63.31,4.46s39.46-21.09,59.19-31.64c9.58-5.12,19.15-10.24,28.73-15.35s19.14-10.88,29.13-15.29l-13.62,5.75c2.91-1.18,5.79-2.08,8.91-2.51-5.05.68-10.1,1.36-15.15,2.04,1.5-.1,2.83-.08,4.33.09l-15.15-2.04c.94.15,1.85.4,2.73.76-4.54-1.92-9.08-3.83-13.62-5.75.91.37,1.76.84,2.56,1.42-3.85-2.97-7.69-5.94-11.54-8.91,1.17.96,2.04,1.86,2.98,3.05-2.97-3.85-5.94-7.69-8.91-11.54.81,1.25,1.46,2.45,2.08,3.8-1.92-4.54-3.83-9.08-5.75-13.62,4.94,12.3,7.17,26.17,8.94,39.25l-2.04-15.15c2.63,20.56,2.61,41.29,0,61.85l2.04-15.15c-2.84,21.11-8.37,41.69-16.63,61.33,1.92-4.54,3.83-9.08,5.75-13.62-1.81,4.22-3.73,8.39-5.77,12.52,34.73,14.64,69.45,29.28,104.18,43.92,14.33-74.07,19.77-149.94,13.51-225.18-1.69-20.27-3.61-40.87-7.5-60.83-1.23-6.32-2.85-12.6-5.16-18.61-3.7-9.61-7.45-19.7-13.49-28.16-9.11-12.77-18.01-22.49-31.52-30.87-6.07-3.77-13.14-6.38-19.77-8.8-2.09-.76-4.19-1.38-6.37-1.83-8.58-1.75-17.93-3.28-26.79-2.34s-17.79,1.78-26.14,4.94c-14.59,5.52-27.15,12.04-39.45,21.42s-24.89,19.98-37.52,29.76c3.85-2.97,7.69-5.94,11.54-8.91-7.79,5.99-15.91,11.67-24.99,15.56l13.62-5.75c-3.98,1.64-8.06,2.86-12.32,3.49l15.15-2.04c-3.3.41-6.55.44-9.85.05l15.15,2.04c-3.15-.45-6.16-1.27-9.12-2.43-7.58-2.38-15.15-2.71-22.73-1.02-7.59.34-14.65,2.6-21.19,6.76-11.82,6.92-23.1,20.48-26.19,34.06-3.32,14.59-2.6,30.97,5.75,43.92l8.91,11.54c7.11,7.06,15.5,11.95,25.15,14.66,27.6,10.78,60.21,2.79,84.76-11.73,18.96-11.21,35.16-26.69,52.53-40.13-3.85,2.97-7.69,5.94-11.54,8.91,7.78-5.97,15.89-11.63,24.96-15.48-4.54,1.92-9.08,3.83-13.62,5.75,3.98-1.62,8.04-2.82,12.3-3.42l-15.15,2.04c3.29-.39,6.54-.4,9.83.01l-15.15-2.04c3.14.48,6.14,1.31,9.09,2.49l-13.62-5.75c2.82,1.23,5.39,2.69,7.88,4.49-3.85-2.97-7.69-5.94-11.54-8.91,3.05,2.37,5.68,5.06,8.05,8.1-2.97-3.85-5.94-7.69-8.91-11.54,2.88,3.91,5.17,8.11,7.11,12.56-1.92-4.54-3.83-9.08-5.75-13.62,4.23,10.21,6.44,21.03,7.93,31.94l-2.04-15.15c8.73,66.7,8.36,134.52-.56,201.17l2.04-15.15c-2,14.64-4.4,29.22-7.2,43.73-2.82,14.56-2.65,30.89,5.75,43.92,6.82,10.59,15.6,18.4,27.26,23.32,11.33,4.78,25.09,6.77,37.11,2.87,13.56-4.39,27.53-12.97,34.06-26.19,23.94-48.46,36.53-103.48,30.98-157.62-3.75-36.6-9.15-82.51-44.29-102.96-16.65-9.69-35.31-10.89-53.77-7.01-9.36,1.97-18.23,6.35-26.67,10.78-11.37,5.95-22.63,12.1-33.95,18.15-25.82,13.8-51.65,27.61-77.47,41.41,27.91,21.46,55.82,42.91,83.73,64.37,2.61-12.08,6.29-23.85,11.02-35.27-1.92,4.54-3.83,9.08-5.75,13.62,6.8-16.06,15.56-31.1,26.18-44.93l-8.91,11.54c5.73-7.32,11.8-14.41,19.15-20.16l-11.54,8.91c3.03-2.25,6.15-4.16,9.57-5.75l-13.62,5.75c3.12-1.31,6.25-2.22,9.58-2.82l-15.15,2.04c4.62-.62,9.13-.54,13.75.04-5.05-.68-10.1-1.36-15.15-2.04,7.64,1.21,14.89,3.65,22.02,6.61-4.54-1.92-9.08-3.83-13.62-5.75,17.98,7.7,35.13,17.23,52.47,26.25,20.5,10.66,41.55,20.68,63.39,28.28,9.03,3.14,18.28,5.69,27.71,7.34,17.78,3.12,34.99,5.72,52.76.84,12.09-3.32,22.83-9.91,31.87-18.49,13.27-12.6,18.48-30.1,19.95-47.7,1.17-13.95-3.42-28.93-6.2-42.65-8.91-43.99-17.82-87.97-26.73-131.96-2.54-12.53-6.13-23.84-12.21-35.39-9.48-18-26.44-31.46-45.84-37.16-11.6-3.41-26.3-3.05-37.77.44-13.22,4.01-22.91,10.71-33.11,19.85-6.66,5.96-12.9,12.52-19.09,18.96-16.66,17.32-32.84,36.28-44.53,57.36-6.81,12.28-12.64,25.62-16.29,39.19s-4.07,27.96-5.71,41.99c.68-5.05,1.36-10.1,2.04-15.15-.35,2.31-.84,4.49-1.67,6.67l5.75-13.62c-.59,1.25-1.19,2.29-2,3.41,2.97-3.85,5.94-7.69,8.91-11.54-.56.7-1.2,1.34-1.9,1.9,3.85-2.97,7.69-5.94,11.54-8.91-.85.68-1.78,1.24-2.77,1.69,4.54-1.92,9.08-3.83,13.62-5.75-6.94,2.79-15.02,3.32-22.36,4.48-8.02,1.26-16.06,2.43-24.1,3.52l15.15-2.04c-73.44,9.78-147.77,11.9-221.64,6.28-7.85-.3-15.17,1.34-21.96,4.91-7.07,2.3-13.18,6.23-18.34,11.79l-8.91,11.54c-4.17,6.54-6.42,13.61-6.76,21.19-1.63,12.15-.08,25.73,6.76,36.35,8.2,12.72,19.44,21.65,34.06,26.19,54.59,16.95,113.28,24.32,170.36,21.04l-15.15-111.96c-37.32,15.2-75.15,30.4-115.31,36.01l15.15-2.04c-16.73,2.2-33.51,2.69-50.26.52l15.15,2.04c-13.88-1.92-27.42-5.48-40.36-10.85l13.62,5.75c-10.48-4.47-20.36-10.06-29.42-16.97l11.54,8.91c-7.38-5.77-14.01-12.29-19.77-19.68l8.91,11.54c-3.71-4.89-6.96-10.04-9.77-15.5-29.84,23.02-59.68,46.05-89.52,69.07,1.83,2.21,3.63,4.45,5.4,6.71l-8.91-11.54c13.71,17.77,25.05,37.15,33.87,57.79l-5.75-13.62c5.23,12.47,10.39,25.62,12.22,39.08l-2.04-15.15c.38,3.76.41,7.4-.02,11.16l2.04-15.15c-.62,3.8-1.69,7.32-3.18,10.87l5.75-13.62c-2.55,5.53-5.86,10.51-9.54,15.35l8.91-11.54c-19.55,25.14-39.82,49.39-56.59,76.56-16.93,27.44-30.42,56.47-42.52,86.32l-2.04,15.15,2.04,15.15c3.3,12,10.7,22.09,20.43,29.61,3.56,3.53,7.75,5.98,12.58,7.33,4.45,2.58,9.24,3.88,14.38,3.89,12.67,1.7,25.02-.31,36.35-6.76,25.61-14.6,50.4-30.57,74.29-47.85,6.64-3.58,11.97-8.48,15.99-14.68,5.04-5.51,8.44-11.97,10.2-19.38,3.76-13.64,2.06-31.81-5.75-43.92s-19.53-22.88-34.06-26.19l-15.15-2.04c-10.29.03-19.88,2.63-28.77,7.78-10.17,4.49-20.33,8.98-30.5,13.47,26,26,51.99,51.99,77.99,77.99,14.28-21.35,29.27-42.21,44.96-62.55-2.97,3.85-5.94,7.69-8.91,11.54,9.58-12.39,19.42-24.57,29.49-36.56,5.56-5.16,9.49-11.28,11.79-18.34,3.57-6.79,5.21-14.11,4.91-21.96,0-13.98-6.21-30.68-16.69-40.31-10.86-9.97-25.12-17.37-40.31-16.69l-15.15,2.04c-9.66,2.71-18.04,7.59-25.15,14.66-10.82,8.84-21.64,17.69-32.46,26.53-5.56,5.16-9.49,11.28-11.79,18.34-3.57,6.79-5.21,14.11-4.91,21.96.58,12.87,4.32,24.29,12.24,34.54,7.28,9.42,17.67,17.71,29.61,20.43,13.91,3.17,32.01,3.3,43.92-5.75,20.27-15.39,40.53-30.78,60.8-46.17-23.02-29.84-46.05-59.68-69.07-89.52-26.28,26.05-49.6,55.57-69.29,86.88l-5.75,13.62c-2.38,7.58-2.71,15.15-1.02,22.73,1.61,11.96,6.52,24.32,15.68,32.73,7.28,6.68,15.75,11.62,25.15,14.66,13.76,4.45,31.64,1.37,43.92-5.75,13.98-8.1,28.43-15.32,43.3-21.65l-13.62,5.75c24.29-10.21,49.5-17.93,75.35-23.05-21.46-27.91-42.91-55.82-64.37-83.73-6.7,14.42-13.39,28.85-20.09,43.27l-5.75,13.62c-2.38,7.58-2.71,15.15-1.02,22.73,1.61,11.96,6.52,24.32,15.68,32.73,7.28,6.68,15.75,11.62,25.15,14.66,7.58,2.38,15.15,2.71,22.73,1.02,7.59-.34,14.65-2.6,21.19-6.76,28.27-18.54,56.54-37.07,84.81-55.61-23.02-29.84-46.05-59.68-69.07-89.52-25.54,28.48-47.48,60.38-62.61,95.59l-5.75,13.62c-2.38,7.58-2.71,15.15-1.02,22.73,1.61,11.96,6.52,24.32,15.68,32.73,7.28,6.68,15.75,11.62,25.15,14.66,13.78,4.46,31.61,1.35,43.92-5.75,59.68-34.41,119.36-68.83,179.04-103.24l-77.99-77.99c-9.82,13.22-19.64,26.45-29.46,39.67-4.17,6.54-6.42,13.61-6.76,21.19-1.7,7.58-1.36,15.15,1.02,22.73,3.89,12.02,10.39,21.85,20.43,29.61,9.61,7.43,22.05,12.8,34.54,12.24l15.15-2.04c9.66-2.71,18.04-7.59,25.15-14.66,14.22-12.22,28.44-24.45,42.67-36.67,5.56-5.16,9.49-11.28,11.79-18.34,3.57-6.79,5.21-14.11,4.91-21.96-.58-12.87-4.32-24.29-12.24-34.54-7.28-9.42-17.67-17.71-29.61-20.43-14.87-3.39-30.56-2.28-43.92,5.75-57.37,34.47-115.43,67.79-174.16,99.9-58.73,32.11-118.11,63.02-178.09,92.7-33.59,16.62-67.19,33.67-101.51,48.73l13.62-5.75c-2.82,1.14-5.55,2-8.57,2.41,5.05-.68,10.1-1.36,15.15-2.04-1.16.11-2.31.08-3.46-.08l15.15,2.04c-.98-.12-1.93-.38-2.83-.77,4.54,1.92,9.08,3.83,13.62,5.75-.73-.33-1.4-.75-2.03-1.26l11.54,8.91c-.63-.51-1.19-1.08-1.69-1.72l8.91,11.54c-.49-.63-.91-1.31-1.26-2.04l5.75,13.62c-.34-.7-.58-1.43-.74-2.2l2.04,15.15c-.15-.73-.2-1.47-.13-2.21l-2.04,15.15c.06-.72.25-1.41.56-2.07l-5.75,13.62.57-.93-8.91,11.54.78-.84c9.72-10.51,17.36-25.54,16.69-40.31-.58-12.87-4.32-24.29-12.24-34.54-7.28-9.42-17.67-17.71-29.61-20.43l-15.15-2.04c-10.29.03-19.88,2.63-28.77,7.78-7.36,3.4-14.73,6.8-22.09,10.2,26,26,51.99,51.99,77.99,77.99,22.79-39.74,21.43-88.99,5.33-130.91-7.37-19.19-15.77-38.21-27.06-55.45s-24.58-34.22-40.23-47.89c-10.12-8.84-20.9-17.19-32.29-24.34-12.07-7.58-24.99-12.89-38.12-18.41-10.1-2.71-20.2-2.71-30.31,0-9.66,2.71-18.04,7.59-25.15,14.66-27.91,28.07-48.35,62.52-60.54,100.11-6.57,20.27-10.67,41.99-7.82,63.21,2.4,17.83,9.37,35.16,22.98,47.63,11.64,10.67,25.67,18.57,41.11,22.23,44.22,10.46,89,1.14,129.03-18.85,17.73-8.85,33.74-20.99,48.83-33.72,12.41-10.47,23.67-22.24,34.19-34.59,14.66-17.23,28.21-35.43,41.54-53.7,13.14-18.01,25.73-36.03,31.27-58.12,4.49-17.89.98-35.21-10.2-49.69-10.35-13.39-27.1-23.61-44.76-22.46-14.8.96-29.6,1.92-44.4,2.88,13.44,32.44,26.87,64.87,40.31,97.31,21.36-24.57,42.72-49.14,64.09-73.71,12.23-14.06,18.19-29.2,15.68-47.88-.34-7.59-2.6-14.65-6.76-21.19-5.07-8.57-11.88-15.38-20.45-20.45-50.95-25.32-105.18-43.66-161.59-51.62-7.58-2.38-15.15-2.71-22.73-1.02-7.59.34-14.65,2.6-21.19,6.76-10.59,6.82-18.4,15.6-23.32,27.26s-6.77,25.09-2.87,37.11c4.32,13.36,12.94,27.91,26.19,34.06,18.47,8.58,36.94,17.16,55.41,25.73,4.54-34.73,9.08-69.45,13.62-104.18l-1.88.25,15.15-2.04c-18.9,2.37-37.92,2.32-56.8-.13l15.15,2.04c-8.79-1.22-17.47-2.93-26.07-5.14-14.47-3.73-30.95-1.85-43.92,5.75-11.82,6.92-23.1,20.48-26.19,34.06-3.32,14.59-2.6,30.97,5.75,43.92,8.17,12.67,19.44,21.76,34.06,26.19,22.72,6.88,45.45,13.77,68.17,20.65-4.54-34.73-9.08-69.45-13.62-104.18-1,.51-2.01.99-3.05,1.43,4.54-1.92,9.08-3.83,13.62-5.75-4.63,1.89-9.37,3.1-14.32,3.8l15.15-2.04c-9.61,1.11-19.2.33-28.76-.96l15.15,2.04c-13.99-1.97-27.9-4.6-41.97-5.9-12.9-1.19-25.44.58-38.23,2.57-3.71.58-7.39,1.42-10.95,2.64-7.76,2.65-15.8,5.72-22.85,9.99-6.7,4.07-13.34,9.03-18.81,14.65-4.35,4.48-8.17,9.78-11.74,14.84-1.24,1.76-2.32,3.55-3.28,5.47-6.57,13.19-10.48,29.3-5.75,43.92,4.42,13.67,12.98,27.34,26.19,34.06,16.45,8.37,33.62,14.84,51.9,17.4,18.87,2.65,36.93,4.12,55.93,2.38,35.21-3.21,69.87-10.81,104.17-19.17,18.1-4.41,36.11-9.21,54.02-14.34,13.88-3.98,26.75-13.69,34.06-26.19s10.18-30.22,5.75-43.92-13.01-27.1-26.19-34.06-28.92-10.05-43.92-5.75h0Z"/>
      <path class="cls-3" d="M357.61,1396.99c5.85-11.42,14.18-21.54,24.41-29.31.99-.75,1.56-1.89,1.02-3.12-.46-1.04-1.77-1.91-2.95-1.45-18.78,7.32-37.55,14.64-56.33,21.95-5.28,2.06-10.55,4.11-15.83,6.17-1.04.41-1.84,1.23-1.84,2.41,0,1,.77,2.26,1.84,2.41,12.27,1.73,24.53,3.51,36.78,5.33,1.33.2,2.69-.33,3.08-1.75.32-1.18-.4-2.88-1.75-3.08-12.25-1.82-24.52-3.6-36.78-5.33v4.82c18.78-7.32,37.55-14.64,56.33-21.95,5.28-2.06,10.55-4.11,15.83-6.17l-1.93-4.57c-10.92,8.3-19.94,18.89-26.21,31.11-1.46,2.86,2.85,5.39,4.32,2.52h0Z"/>
      <path class="cls-3" d="M345,1407.27c14.65.92,29.47-1.23,43.25-6.28,1.17-.43,1.98-1.45,1.79-2.74-.17-1.13-1.2-2.29-2.46-2.17-30.85,2.9-61.56,7.42-91.93,13.58-8.61,1.75-17.2,3.63-25.76,5.63-2.88.68-2.02,4.71.66,4.91,26.54,1.99,53.21,2.09,79.76.27,7.54-.52,15.07-1.19,22.58-2.01,1.34-.15,2.5-1.04,2.5-2.5,0-1.36-1.14-2.5-2.5-2.5-9.92-.03-19.84-.06-29.76-.09-2.73,0-3.52,4.44-.66,4.91,2.64.44,4.86-1.12,5.47-3.74s-.81-5-3.06-6.3-5.15-1.75-7.7-2.39c-2.99-.75-5.98-1.51-8.97-2.26-12.04-3.03-24.08-6.06-36.11-9.09-6.79-1.71-13.57-3.42-20.36-5.13v4.82c24.57-6.44,50.11-8.79,75.44-6.98,7.03.5,14.03,1.33,20.98,2.48l.66-4.91c-18.19,2.38-36.38,4.76-54.57,7.14-1.34.18-2.5,1.02-2.5,2.5s1.15,2.44,2.5,2.5c11.96.54,23.82,2.12,35.5,4.73l-.6-4.57c-6.27,2.76-13.43,3.28-20.05,1.62v4.82c17.34-4.83,34.69-9.65,52.03-14.48,2.19-.61,2.56-4.47,0-4.82-18.15-2.49-36.5-2.96-54.74-1.23-1.24.12-2.3.86-2.46,2.17-.14,1.15.55,2.5,1.79,2.74,9.16,1.83,18.11,4.66,26.62,8.52l-.9-3.42c-2.82,3.82-8.68,5.07-12.86,2.94l-1.93,4.57c3.36,1.24,6.27-2.36,5.95-5.49-.39-3.82-4.35-5.26-7.51-6.22-8.02-2.44-16.03-4.89-24.05-7.33v4.82c13.19-4.88,27.55-6.34,41.43-3.98v-4.82c-5.13,2.04-10.71,2.83-16.18,1.99l-.66,4.91c3.87.3,7.74.6,11.61.89l-.66-4.91c-5.88,1.93-11.97,2.71-18.16,2.34-1.28-.08-2.6,1.21-2.5,2.5,2.43,32,4.87,63.99,7.3,95.99.68,8.95,1.36,17.9,2.04,26.86.08,1.11.72,2.1,1.84,2.41.97.27,2.4-.15,2.82-1.15,6.47-15.27,12.93-30.54,19.4-45.8.53-1.24.37-2.68-.9-3.42-1.05-.61-2.89-.35-3.42.9-6.47,15.27-12.93,30.54-19.4,45.8l4.66,1.26c-2.43-32-4.87-63.99-7.3-95.99-.68-8.95-1.36-17.9-2.04-26.86l-2.5,2.5c6.58.4,13.22-.46,19.48-2.52,2.74-.9,2.14-4.69-.66-4.91-3.87-.3-7.74-.6-11.61-.89-2.77-.21-3.46,4.48-.66,4.91,6.37.98,12.84.4,18.84-1.99,1.04-.41,1.84-1.22,1.84-2.41,0-1.02-.77-2.23-1.84-2.41-14.76-2.51-30.02-1.21-44.08,3.98-2.26.84-2.48,4.07,0,4.82,6.11,1.86,12.22,3.73,18.33,5.59,2.66.81,5.56,1.4,8.11,2.54.32.14.68.31.96.52-.04-.03.66.69.52.37.04.1-.13.73-.2.68-.02-.02.09-.14.11-.14.13.02,1.06.07.42-.16-2.65-.98-4.44,3.29-1.93,4.57,6.8,3.47,15.19,1.37,19.7-4.73.75-1.01.24-2.9-.9-3.42-8.91-4.04-18.21-7.1-27.81-9.02l-.66,4.91c17.76-1.68,35.73-1.37,53.41,1.05v-4.82c-17.34,4.83-34.69,9.65-52.03,14.48-2.34.65-2.42,4.21,0,4.82,8.02,2.01,16.35,1.21,23.9-2.12,1.98-.87,1.39-4.13-.6-4.57-12.1-2.7-24.44-4.35-36.83-4.91v5c18.19-2.38,36.38-4.76,54.57-7.14,1.23-.16,2.3-.83,2.46-2.17.13-1.12-.55-2.54-1.79-2.74-25.74-4.27-52.02-4.29-77.77-.05-7.17,1.18-14.28,2.7-21.31,4.55-2.36.62-2.4,4.22,0,4.82,21.01,5.29,42.01,10.58,63.02,15.86,2.66.67,5.47,1.15,8.05,2.09.46.17.93.38,1.32.69.07.05.43.5.27.23.02.03.02.38.02.36.05.26-.23.1-.08.16-.04-.02,1.04-.08.78-.13l-.66,4.91c9.92.03,19.84.06,29.76.09v-5c-26.45,2.89-53.11,3.9-79.7,2.98-7.55-.26-15.1-.68-22.63-1.24l.66,4.91c29.89-7.01,60.16-12.46,90.63-16.24,8.56-1.06,17.14-1.99,25.73-2.8l-.66-4.91c-13.41,4.92-27.66,7-41.92,6.1-3.21-.2-3.2,4.8,0,5h0Z"/>
    </g>
    <g>
      <path class="cls-1" d="M1037.28,1320.8c.15-2.91-.66-4.55-3.18-5.87-2.13-1.11-5.35-2.57-7.78-2.36-3.06.26-5.25,2.99-7.06,5.15-1.92,2.3-3.74,4.7-5.4,7.2-.1.22-.2.44-.3.65-.94,2.04-2.01,4.08-3.06,6.15-2.29,5.33-4.34,11.3-4.54,16.87-.13,3.54.74,5.7,4.31,6.66,2.37.64,5.07,1.06,7.42.25,4.73-1.62,8.15-6.26,10.82-10.77,2.48-4.53,4.65-9.26,6.72-13.96,1.12-3.29,1.9-6.69,2.06-9.96Z"/>
      <path class="cls-1" d="M1135.89,1380.4c1.11-8.25,1.53-16.96-.22-25.13-.73-3.42-2.83-7.87-1.81-11.24.92-3.02,3.33-5.6,3.07-8.88.17-.92-.12-1.94-1.16-2.52-1.84-1.04-3.71-2.03-5.59-2.99-8.38-4.31-17.05-8.04-25.28-12.65-11.47-6.42-23.95-9.51-35.9-14.8-3.83-1.69-7.41-3.83-11.1-5.78-13.55-5.5-27.19-10.76-40.87-15.9-5.92-2.22-11.84-4.43-17.77-6.61-.82,1.71-1.51,3.47-2.22,5.24-.47,1.18-1.12,2.34-1.45,3.55-4.93-.41-10.28,2.22-14.3,4.62-5.68,3.39-10.75,8.16-14.23,13.81-.11.18-.23.34-.33.52-4.07,6.87-5.36,15.06-5.05,22.95.15,3.9.65,7.85,1.84,11.58.77,2.42,1.72,5.59,3.33,7.87-.87,1.19-1.43,2.65-2,4-.15.35-.29.69-.44,1.04-.96,2.27-1.94,4.54-2.8,6.85-.12.31-.16.61-.16.89,2.94,1.56,5.87,3.14,8.8,4.71,2.44,1.31,4.88,2.61,7.34,3.88.66.34,1.15.77,1.52,1.26,4.5,2.54,8.71,5.61,13.35,7.95,11.43,5.77,23.24,10.64,34.9,15.89,5.17,2.32,10.12,5.05,15.26,7.42.85.39,1.71.78,2.57,1.15,6,2.56,12.1,4.86,18.1,7.42.14.06.28.11.41.17,6.04,2.59,11.86,5.59,17.53,8.92,4.66,1.93,9.33,3.85,14.02,5.73.75-.19,1.31-.7,1.66-1.31,1.71-1.49,2.74-3.85,3.6-5.87.22-.52.49-1.06.75-1.62,7.59-1.05,14.34-4.01,19.92-9.29,4.29-4.05,8.9-8.89,11.84-14.37,1.43-2.67,2.47-5.49,2.87-8.45ZM1035.08,1346.15c-.82,1.51-1.66,3.01-2.55,4.49-2.92,4.83-6.13,10.71-10.78,14.09-4.92,3.57-10.94,2.28-16.13-.04-5.6-2.51-9.85-6.92-9.72-13.31.12-6,2.95-11.63,5.51-16.91.87-1.79,1.77-3.58,2.67-5.35.83-2.01,1.86-3.91,3.01-5.75.21-.4.43-.79.65-1.19,1.78-3.6,3.7-7.38,6.1-10.65.24-.35.48-.7.74-1.04.05-.08.1-.16.15-.24.19-.3.4-.55.64-.76,2.44-2.95,5.47-5.22,9.49-5.28,6.16-.09,13.23,3.43,17.17,8.08,4.47,5.28,3.65,10.83,1.1,16.75-.83,1.93-1.66,3.85-2.52,5.76-1.46,3.96-3.31,7.78-5.51,11.34ZM1031.12,1370.73s0-.02.01-.04c-.11.28-.27.54-.49.77,0,0,0,0,0,0-.27.34-.61.59-1.01.75-.36.22-.76.35-1.19.37-.28-.01-.57-.02-.85-.04-.28-.09-.56-.18-.84-.27-.41-.18-.75-.44-1.02-.8-.22-.19-.37-.42-.47-.69-.22-.36-.35-.76-.37-1.19.01-.28.03-.57.04-.85.05-.4.26-.84.44-1.22.04-.08.07-.16.12-.24,0-.02.02-.04.03-.05.16-.25.32-.49.48-.74.17-.22.39-.41.64-.57.25-.13.5-.25.75-.38.27-.08.54-.14.82-.18.59-.05,1.15.05,1.69.31.41.18.75.44,1.02.8.31.29.53.65.66,1.06.19.54.24,1.1.14,1.67-.03.29-.18.57-.27.85-.03.06-.07.12-.1.17-.08.16-.16.33-.22.49ZM1059.21,1383.58c-.3.54-.61,1.07-.92,1.6-3.19-1.25-6.14-3.32-9.28-4.53-3.82-1.48-8.49-1.62-11.33-4.94-2.72-3.17-1.1-6.29,1.18-9.07,1.89-3.98,6.13-7.8,8.8-10.33,5.9-5.6,10.61-12.32,16.61-17.81,1.47-1.35,4.86-3.45,4.77-5.53-.17-.17-.38-.34-.64-.52-1.74-1.22-3.52-2.57-5.42-3.53-1.92-.97-3.16-1.7-4.68-.09-1.31,1.39-2.33,3.59-2.98,5.57-1.15-.46-2.31-.92-3.44-1.42-1.39-.61-3.06-1.06-4.29-2,1.25-4.6,5.24-9.43,8.79-10.65,3.46-1.19,7.14.18,10.11,1.98,2.85,1.73,6.57,3.86,8.36,6.75.3.49.53.99.7,1.49.22.42.4.85.52,1.29,1.01,3.9-1.59,7.91-3.8,10.9-2.88,3.88-6.7,6.86-10.36,9.95-4.58,3.88-8.82,8.24-13,12.55-.7.72-1.89,1.75-2.99,2.83-.28.45-.54.92-.79,1.38,3.2,1.23,6.24,3.3,9.3,4.62,2.79,1.19,5.59,2.06,7.99,3.64-.91,2.03-2.11,3.95-3.18,5.87ZM1100.43,1351.27c-3.56,4.17-6.88,8.55-10.04,13.03.53.16,1.06.32,1.59.45.51.13.93.34,1.28.61-.89,1.6-1.74,3.22-2.61,4.84-.15.28-.3.55-.45.82-1.23-.33-2.44-.72-3.64-1.15-.42.63-.85,1.27-1.27,1.9-4.11,6.23-7.37,12.47-10.5,19.15-.78-.48-1.55-.97-2.34-1.43-1.16-.68-2.38-1.24-3.58-1.83,1.69-3.41,2.96-7.04,4.91-10.36,1.98-3.36,3.92-6.72,5.84-10.11-1.57-.59-3.15-1.14-4.77-1.56-.42-.11-.77-.28-1.08-.48.74-1.02,1.52-1.98,1.99-2.75.57-.93,1.13-1.87,1.69-2.81,1.84.56,3.63,1.24,5.42,1.95,1.84-3.08,3.79-6.1,5.62-9.19,1.3-2.19,2.64-4.36,4.15-6.4-1.42-.66-2.89-1.25-4.15-1.95-2.91-1.61-5.94-2.96-8.84-4.57.17-.38.36-.75.53-1.13,1-2.22,1.77-4.56,2.96-6.67,0,0,.02,0,.02,0,3.71,1.78,7.04,3.65,10.93,5.05,2.68.97,5.49,2.31,7.83,3.98,4.56,3.27,1.3,7.32-1.48,10.58Z"/>
      <path class="cls-4" d="M1043.11,1329.05c2.55-5.92,3.37-11.47-1.1-16.75-3.93-4.64-11.01-8.17-17.17-8.08-4.02.06-7.06,2.33-9.49,5.28-.23.21-.45.46-.64.76-.05.08-.1.16-.15.24-.26.34-.5.69-.74,1.04-2.4,3.27-4.31,7.05-6.1,10.65-.22.4-.44.79-.65,1.19-1.14,1.84-2.18,3.75-3.01,5.75-.91,1.78-1.8,3.56-2.67,5.35-2.57,5.28-5.4,10.92-5.51,16.91-.12,6.39,4.12,10.8,9.72,13.31,5.19,2.32,11.21,3.61,16.13.04,4.66-3.38,7.86-9.27,10.78-14.09.89-1.47,1.74-2.97,2.55-4.49,2.2-3.56,4.05-7.38,5.51-11.34.85-1.91,1.69-3.84,2.52-5.76ZM1028.5,1344.72c-2.67,4.51-6.08,9.15-10.82,10.77-2.35.81-5.06.39-7.42-.25-3.57-.96-4.44-3.12-4.31-6.66.21-5.57,2.25-11.54,4.54-16.87,1.06-2.07,2.12-4.11,3.06-6.15.1-.21.2-.43.3-.65,1.67-2.5,3.48-4.9,5.4-7.2,1.8-2.16,4-4.89,7.06-5.15,2.43-.2,5.66,1.25,7.78,2.36,2.53,1.32,3.33,2.96,3.18,5.87-.17,3.27-.94,6.67-2.06,9.96-2.06,4.7-4.23,9.43-6.72,13.96Z"/>
      <path class="cls-4" d="M1031.7,1369.22c.1-.57.05-1.12-.14-1.67-.13-.42-.35-.77-.66-1.06-.26-.35-.6-.62-1.02-.8-.54-.25-1.1-.35-1.69-.31-.28.04-.55.1-.82.18-.25.13-.5.25-.75.38-.25.15-.46.34-.64.57-.16.25-.32.49-.48.74,0,.02-.02.04-.03.05-.04.08-.08.16-.12.24-.18.38-.39.81-.44,1.22-.01.28-.03.57-.04.85.02.43.14.83.37,1.19.1.27.26.5.47.69.26.35.6.62,1.02.8.28.09.56.18.84.27.28.01.57.03.85.04.43-.02.83-.14,1.19-.37.4-.16.73-.41,1.01-.75,0,0,0,0,0,0,.22-.23.38-.49.49-.77,0,.01,0,.02-.01.04.06-.16.13-.33.22-.49.03-.06.07-.11.1-.17.1-.28.24-.56.27-.85Z"/>
      <path class="cls-4" d="M1054.4,1374.08c-3.07-1.32-6.11-3.39-9.3-4.62.26-.46.52-.93.79-1.38,1.1-1.09,2.3-2.12,2.99-2.83,4.19-4.3,8.42-8.67,13-12.55,3.66-3.09,7.49-6.08,10.36-9.95,2.22-2.99,4.82-7,3.8-10.9-.12-.44-.29-.87-.52-1.29-.17-.5-.4-1-.7-1.49-1.78-2.88-5.51-5.02-8.36-6.75-2.97-1.8-6.66-3.17-10.11-1.98-3.55,1.22-7.54,6.05-8.79,10.65,1.22.94,2.9,1.39,4.29,2,1.14.5,2.29.95,3.44,1.42.65-1.99,1.67-4.18,2.98-5.57,1.52-1.61,2.76-.88,4.68.09,1.89.96,3.67,2.31,5.42,3.53.26.18.47.36.64.52.09,2.08-3.29,4.18-4.77,5.53-6,5.49-10.71,12.2-16.61,17.81-2.66,2.53-6.91,6.35-8.8,10.33-2.27,2.79-3.9,5.9-1.18,9.07,2.85,3.32,7.52,3.46,11.33,4.94,3.14,1.22,6.09,3.28,9.28,4.53.3-.53.62-1.06.92-1.6,1.07-1.92,2.27-3.84,3.18-5.87-2.39-1.58-5.2-2.44-7.99-3.64Z"/>
      <path class="cls-4" d="M1101.9,1340.69c-2.34-1.67-5.15-3.02-7.83-3.98-3.9-1.4-7.23-3.28-10.93-5.05,0,0-.02,0-.02,0-1.19,2.11-1.96,4.45-2.96,6.67-.17.38-.35.75-.53,1.13,2.91,1.61,5.94,2.96,8.84,4.57,1.26.69,2.72,1.29,4.15,1.95-1.51,2.04-2.85,4.2-4.15,6.4-1.83,3.08-3.78,6.11-5.62,9.19-1.79-.7-3.58-1.39-5.42-1.95-.55.94-1.11,1.87-1.69,2.81-.47.76-1.25,1.73-1.99,2.75.31.21.67.38,1.08.48,1.62.43,3.21.97,4.77,1.56-1.91,3.39-3.86,6.75-5.84,10.11-1.95,3.32-3.22,6.95-4.91,10.36,1.2.6,2.42,1.16,3.58,1.83.79.46,1.57.95,2.34,1.43,3.13-6.68,6.4-12.92,10.5-19.15.42-.64.84-1.27,1.27-1.9,1.19.43,2.41.82,3.64,1.15.15-.27.3-.55.45-.82.87-1.62,1.72-3.24,2.61-4.84-.35-.27-.77-.48-1.28-.61-.54-.13-1.06-.29-1.59-.45,3.16-4.49,6.48-8.87,10.04-13.03,2.78-3.26,6.04-7.31,1.48-10.58Z"/>
    </g>
  </g>
  <g id="Layer_3" data-name="Layer 3">
    <path class="cls-3" d="M365.08,995.08c-22.26,16.4-38.57,37.76-47.42,64.1-8.35,24.83-8.37,53.56,3.98,77.05,6.53,12.43,17.53,22.16,30.19,27.96,5.05,2.31,9.85,4.58,14.56,7.51,2.92,1.82-5.36-4.69-1.71-1.34.83.76,1.68,1.47,2.49,2.25s1.58,1.57,2.33,2.39c.6.66,1.19,1.33,1.75,2.02l-2.56-3.36c3.21,3.1,5.26,8.32,7.22,12.24,1.57,3.15-2.57-6.8-.83-2,.39,1.09.82,2.18,1.2,3.28.92,2.67,1.71,5.38,2.4,8.11.58,2.31,1.08,4.63,1.52,6.97.22,1.17.4,2.35.61,3.53.93,5.2-.66-5.86-.28-2.21.55,5.19.96,10.36,1.07,15.59.14,6.78-.11,13.53-.71,20.28-.57,6.36,1.35-6.2-.04.01-.39,1.77-.68,3.55-1.11,5.31s-.91,3.5-1.46,5.22l-.57,1.72c-1.07,2.85-.78,2.28.86-1.68-1.65,2.42-2.64,5.43-4.25,7.93-.35.54-1.46,1.78-1.69,2.48,2.74-3.45,3.22-4.09,1.44-1.93-.65.76-1.32,1.49-2.01,2.21-.69.71-1.43,1.37-2.14,2.07-2.12,1.82-1.45,1.36,2.04-1.39-.79.59-1.6,1.15-2.43,1.68-.83.53-1.68,1.03-2.54,1.5-.87.47-1.75.9-2.65,1.3,4.2-1.7,4.96-2.09,2.29-1.16-13.38,4.43-23.51,18.85-18.86,33.21,4.32,13.34,18.86,23.61,33.21,18.86,29.47-9.75,47.98-36.52,52.49-66.55,3.71-24.67,3.16-51.47-4.48-75.41-4.15-13.02-10.22-24.35-18.73-34.94-7.85-9.76-18.39-16.55-29.69-21.63-2.51-1.13-5.03-2.25-7.42-3.63-.87-.5-1.91-1.39-2.8-1.75l3.2,2.52c-.72-.59-1.42-1.21-2.1-1.86-.67-.65-1.27-1.36-1.93-2.01-3.7-3.61,3.54,5.48.85,1.06-.48-.8-.99-1.57-1.45-2.38-1.35-2.38-2.31-7.58-.26.07-.62-2.3-1.54-4.51-2.09-6.84-.28-1.17-.47-2.37-.73-3.54-.78-3.56.62,7.44.27,2.14s.48-10.78.19-16.09c.34,6.48-.65,4.49-.19,1.82.31-1.78.66-3.55,1.07-5.3.7-3.01,1.54-5.99,2.53-8.92.33-.98.67-1.95,1.03-2.92.36-.97.73-1.93,1.12-2.88-1.74,4.06-2.03,4.79-.87,2.19,1.35-2.79,2.73-5.55,4.29-8.23s3.32-5.21,5.04-7.79c1.14-1.71,2.92-2.45-1.43,1.75,1.45-1.4,2.63-3.23,3.98-4.73,1.89-2.11,3.88-4.14,5.95-6.07.94-.88,1.9-1.74,2.88-2.58.78-.67,1.58-1.33,2.38-1.98-3.44,2.62-4.04,3.09-1.77,1.41,5.85-4.31,10.41-8.87,12.41-16.14,1.78-6.46.98-15.07-2.72-20.81-7.24-11.23-24.78-18.64-36.94-9.69h0Z"/>
    <path class="cls-3" d="M466.74,1097.24c-5.79,18.07-11.57,36.13-17.36,54.2-5.56,17.37-12.02,34.7-16.47,52.39-5.46,21.71-4.27,44.45,9.78,62.64,7.55,9.77,17.86,15.51,29.52,19.19,3.13.99,7.57,3.16,10.84,3.3.04,0-5.22-2.63-2.97-1.28.6.36,1.3.72,1.94,1.02,3.61,1.73-1.4-1.11-1.85-1.71.42.55,1.51,1.63,2.11,1.98-4.46-2.59-2.67-4.52-1.71-2.1-.22-.57-2.13-6.17-1.24-2.68-.73-2.86-.87-5.86-.12-8.73.53-2.03,2.75-5.18.41-1.51-.41.64-1.03,1.28-1.36,1.96.98-2,3.43-4.37.67-1.03-1.42,1.72-2.85,3.42-4.39,5.04-.85.9-6.1,5.71-2.79,2.88,2.86-2.44.81-.73.03-.23-4.08,2.58,4.56-1.14,1.65-.53-5.87,1.23,5.91-.58,0,.05-2.76.29,3.89.51,3.66.48-2.01-.64-1.8-.52.61.37,2.02.58,3.74,1.68,5.16,3.29-5.59-4.71-11.55-7.91-19.09-7.91-6.62,0-14.53,2.94-19.09,7.91-9.19,10.02-11.54,28.47,0,38.18,11.99,10.09,27.02,14.34,42.41,9.92,11.85-3.4,21.72-11.28,29.49-20.62,3.83-4.61,8.06-9.22,10.85-14.55,4.67-8.92,6.02-18.13,4.19-27.99-2.35-12.59-12.45-23.99-23.62-29.79-5.05-2.63-10.52-4.59-15.98-6.18-2.07-.6-4.15-1.17-6.2-1.84-1.05-.34-4.39-1.76-.53-.02,4.31,1.93-.5-.42-1.08-.72-2.95-1.53.64-1.42,1.8,1.56-.18-.47-2.26-1.61-2.07-2.04.14-.31,3.34,5.01,1.98,2.61-.48-.84-1.06-1.63-1.53-2.48-2.97-5.38,1.67,5.59-.09-.36-.21-.71-.41-1.43-.58-2.16-.17-.73-.32-1.46-.44-2.19-.37-2.14-.2-.97.49,3.48.45-1.77-.07-4.72-.04-6.59.01-.91.61-3.84-.12-.02-.79,4.15,0,.14.2-.89.96-5.09,2.43-10.06,3.98-15,3.1-9.9,6.32-19.76,9.49-29.64,7.18-22.43,14.37-44.85,21.55-67.28,4.31-13.46-5.04-30.07-18.86-33.21-14.76-3.36-28.6,4.45-33.21,18.86h0Z"/>
    <path class="cls-6" d="M283.33,1036.04c-17.94-2.8-37.65-5.53-55.15.99-10.44,3.89-18.92,10.08-25.56,19.05-5.84,7.89-9.41,17.47-12.3,26.79-5.16,16.64-7.67,35.57-2.88,52.61,5.28,18.79,19.58,31.76,38.03,37.26,7.5,2.23,15.3,3.18,23,4.46,3.82.64,7.64,1.34,11.38,2.34,1.72.46,3.41.99,5.09,1.56.45.15,2.97,1.28,1.2.43-1.89-.9,1.33.73,1.67.92.76.42,1.48.92,2.24,1.33,3.49,1.88-1.24-1.25.55.33.71.62,1.39,1.25,2.05,1.93.19.2,2.37,2.67,1.43,1.5,1.76,2.19,4.53,7.43,6.39,10.96,4.74,8.99,9.5,18.01,13.52,27.35,3.03,7.03,6.58,17.86,8.2,26.83.18,1,.36,2.01.5,3.02-.38-2.76,0,.55.07,1.23.18,2.05.28,4.11.31,6.17s-.01,4.12-.14,6.17c-.06,1.03-.16,2.05-.24,3.07-.14,1.7.37-1.6-.16,1.21-.79,4.26-1.86,8.4-3.35,12.47-.87,2.39.9-1.82-.19.47-.43.91-.87,1.81-1.34,2.7-1.06,2-2.26,3.91-3.54,5.79-1.74,2.56-.77.97-.35.47-.8.94-1.62,1.85-2.48,2.73-.67.69-1.36,1.35-2.07,2-.28.26-2.54,2.22-1.17,1.1s-.97.7-1.29.92c-.78.54-1.58,1.05-2.39,1.55-1.83,1.12-3.73,2.1-5.66,3.03,2.55-1.23-.24.1-.93.35-1.13.41-2.26.79-3.41,1.14-2.32.69-4.66,1.19-7.03,1.69-.54.11-3.03.45-.19.1-1.21.15-2.42.25-3.63.33-2.43.16-4.87.2-7.31.11-.76-.03-6.93-.6-3.9-.18-2.41-.34-4.81-.83-7.16-1.43-2.14-.54-4.24-1.19-6.32-1.92-1.23-.44-2.47-.88-3.67-1.39,1.93.83-.61-.34-1.29-.67-9.68-4.7-15.4-8.96-22.37-15.58-3.64-3.45-7.06-7.12-10.3-10.96-.68-.81-1.35-1.63-2.02-2.45-3.22-3.91,1.52,2.21-1.45-1.88-1.55-2.13-3.07-4.27-4.55-6.45-4.69-6.92-13.64-9.99-21.21-5.56-6.86,4.01-10.28,14.25-5.56,21.21,21.63,31.9,54.86,60.08,95.66,58.23,19.06-.86,38.32-7.81,51.65-21.87s20.29-34.92,20.36-54.94c.07-21.46-7.25-41.82-16.29-60.97-8.36-17.71-17.06-39.23-35.48-48.59-15.17-7.71-31.93-7.44-47.95-12.05-1.73-.5-3.39-1.1-5.08-1.7-2.05-.72,1.72,1.34.06-.03-.79-.65-2.03-1.04-2.91-1.57-.76-.45-1.49-.95-2.23-1.44.55.37,2.11,1.94-.04-.08-.66-.62-1.32-1.22-1.95-1.88-.56-.58-2.75-3.66-.94-.95-.98-1.46-1.8-2.97-2.67-4.49-.37-.64-.94-2.64-.02.11-.28-.84-.6-1.65-.86-2.49-.54-1.71-.9-3.44-1.3-5.18-.66-2.89-.14-.57-.06.09-.15-1.37-.27-2.75-.33-4.13-.11-2.34-.1-4.69.02-7.03.05-.95.11-1.9.19-2.84.06-.7.6-4.86.12-1.58.66-4.5,1.65-8.95,2.88-13.33,1.29-4.61,2.73-9.33,4.67-13.71-.83,1.88.34-.58.44-.77.77-1.44,1.48-2.88,2.33-4.28.55-.91,1.14-1.85,1.77-2.7-1.29,1.74,1.74-1.8,1.74-1.8.69-.68,1.41-1.33,2.15-1.96-1.65,1.39,0,.06.89-.49,1-.62,2.04-1.14,3.06-1.72,2.45-1.39-.78.17.82-.36,2.03-.67,4.05-1.3,6.15-1.75-.16.03,4.47-.8,2.22-.46-1.94.29,1.94-.17,2.31-.2,10.31-.75,19.95.5,27.33,1.65,7.98,1.24,17.06-2.03,19.07-10.83,1.69-7.41-2.26-17.73-10.83-19.07h0Z"/>
    <path class="cls-6" d="M350.3,1098.48c10.98,60.96,31.41,120,59.95,174.96,3.67,7.06,14.54,10.12,21.21,5.56,15.24-10.43,16.58-27.17,17.08-44.17.52-17.86,1.04-35.72,1.57-53.57,1.04-35.72,2.09-71.43,3.13-107.15l-26.46,10.96c15.9,19.59,32.34,38.73,49.33,57.38,8.5,9.32,17.13,18.52,25.89,27.59,8.48,8.78,17.01,19.18,27.83,25.16,12.08,6.67,27.36,6.49,37.65-3.45,7.59-7.34,10.28-18.39,10.1-28.65-.19-10.82-3.38-21.03-6.39-31.31-3.67-12.55-7.39-25.1-11.16-37.62-8.48-28.19-17.2-56.3-26.15-84.33-2.46-7.71-10.88-13.48-19.07-10.83-7.73,2.5-13.47,10.8-10.83,19.07,14.22,44.54,28.85,89.22,40.93,134.4.48,1.78.84,3.57,1.22,5.38.19.91.45,3.77.11.24.08.84.17,1.67.23,2.51.11,1.65.15,3.31.09,4.97-.03.81-.11,1.6-.16,2.41.29-3.94.02-.55-.25.45-.12.44-1.51,3.38-.31,1.25,1.11-1.98-.11.09-.43.5-1.4,1.78,2.29-3.06.15-.34l.76-.56c1.06-.75,1.01-.75-.14,0,0,0-3.73,2.23.63-.27,1.54-.88.86.44-.42,0,2.82.94-.12-.13-.32-.25,2.3,1.38-1.52-.9-1.97-1.14-2.12-1.14-1.62-.99-.87-.45-1.11-.8-2.12-1.79-3.13-2.71-1.93-1.77-3.75-3.65-5.59-5.51-3.99-4.04-7.95-8.1-11.89-12.19-7.87-8.18-15.64-16.46-23.3-24.84-17.45-19.09-34.31-38.7-50.61-58.78-3.85-4.74-11.77-5.38-16.93-3.2-5.75,2.43-9.35,7.91-9.53,14.17-.97,33.07-1.94,66.14-2.9,99.21-.48,16.54-.97,33.07-1.45,49.61-.22,7.35-.21,14.75-.72,22.09-.07.95-.6,4.33-.09,1.58-.26,1.39-.67,2.74-.93,4.13-.6,1.71-.56,1.76.12.13-.28.61-.6,1.19-.96,1.75-.59.93-.44.77.46-.5-1.27,1.2-1.25,1.24.04.13,7.07,1.85,14.14,3.71,21.21,5.56-27.19-52.36-46.23-108.74-56.82-167.56-1.44-8-11.6-13.24-19.07-10.83-8.58,2.78-12.37,10.5-10.83,19.07h0Z"/>
    <path class="cls-6" d="M581.66,1027.54c24.86,26.53,49.72,53.05,74.58,79.58,9.42,10.05,26.23,2.07,26.46-10.96.72-39.73,1.43-79.46,2.15-119.19-10.15,1.37-20.3,2.75-30.45,4.12,6.11,17.49,6.96,33.19,5.02,52.18-1.62,15.84-6.44,34.79-10.97,51.73-4.84,18.1-9.89,36.13-13.48,54.53-3.92,20.17-6.53,40.63-7.86,61.13-.53,8.11,7.51,15.86,15.5,15.5,8.85-.4,14.93-6.82,15.5-15.5,1.28-19.69,3.57-37.32,7.51-56.65,3.86-18.94,9.26-37.49,14.16-56.17,9.79-37.31,17.63-77.44,4.52-114.99-2.56-7.34-9.06-12.17-17.01-11.1s-13.3,7.44-13.44,15.22c-.72,39.73-1.43,79.46-2.15,119.19l26.46-10.96c-24.86-26.53-49.72-53.05-74.58-79.58-5.73-6.11-16.14-5.78-21.92,0-6.09,6.09-5.74,15.79,0,21.92h0Z"/>
    <path class="cls-6" d="M778.68,896.56c-14.88-6.19-29.43,6.62-35.45,19.19s-9.81,25.64-12.8,38.79c-6.09,26.75-7.67,54.55-4.19,81.76s10.01,54.56,25.22,76.89c14.65,21.51,39.01,38.48,66.13,36.18,30.55-2.59,56.22-31.43,48.04-62.71-2.05-7.84-11.17-13.38-19.07-10.83s-13.02,10.66-10.83,19.07c0,0,.82,4.34.53,1.98s0,2,0,2c-.01.9-.07,1.8-.16,2.7.32-3.12.06-.78-.14-.12-.26.84-.53,1.76-.75,2.62-1.02,4.01.85-1.46-.26.73-.52,1.03-1.05,2.04-1.66,3.03-.35.58-2.76,3.75-.81,1.39-1.19,1.45-2.57,2.7-3.86,4.05-2.93,3.06,1.35-.78-.69.63-.77.53-1.54,1.04-2.35,1.52-1,.6-2.02,1.14-3.07,1.65.62-.3,2.63-.84-.17,0-.94.28-1.87.58-2.82.81-.6.15-4.64.75-1.93.47-2.56.26-5.07.16-7.63.06-.5-.02-2.98-.46-.44-.02-1.01-.18-2.02-.38-3.02-.62-6.13-1.45-7.19-1.97-12.11-4.86-6.67-3.93-12.79-10.22-17.06-16.75-6.1-9.31-8.99-16.38-12.16-26.19s-5.72-20.37-7.43-30.79c-.8-4.9-1.14-7.73-1.61-13.5s-.7-11.23-.73-16.85c-.03-5.33.14-10.66.49-15.97.33-4.91.99-11.33,1.47-14.41,1.92-12.29,4.77-24.4,8.72-36.2.94-2.81,1.93-5.59,2.99-8.36.42-1.1.82-2.23,1.29-3.31-.99,2.28.71-1.32.95-1.75.48-.84.99-1.68,1.54-2.48-1.59,2.31.79-.76,1.27-1.22l-1.05.75c1.34-.75,1.47-.87.38-.36-.77.41-1.6.59-2.49.55-2.12-.36-2.29-.24-.51.35,7.51,3.12,17.37-3.37,19.07-10.83,2.06-9.05-2.78-15.72-10.83-19.07h0Z"/>
    <path class="cls-6" d="M814.21,872.04c25.12,63.36,50.24,126.72,75.35,190.08,3.48,8.77,6.85,17.59,10.44,26.31,4.17,10.12,9.55,17.93,20.24,21.81,4.56,1.65,9.87.04,13.51-2.77,4.16-3.21,5.49-7.11,6.11-12.17-.4,3.33.29-1.28.35-1.59.3-1.41.64-2.82,1.04-4.2s.9-2.74,1.33-4.12c.83-2.68-.35.55.34-.98,1.1-2.41,2.33-4.76,3.71-7.02.76-1.24,1.57-2.42,2.37-3.63,2.44-3.69-1.83,1.86,1.1-1.45,1.76-2,3.52-3.96,5.46-5.78.88-.83,1.8-1.6,2.69-2.41,2.58-2.32-1.2.66,1.44-1.1,2.41-1.6,4.83-3.15,7.4-4.48.56-.29,4.35-1.98,1.55-.83,1.34-.55,2.71-1.01,4.09-1.46,7.68-2.54,13.49-10.82,10.83-19.07-2.48-7.66-10.82-13.55-19.07-10.83-30.85,10.19-51.75,37.01-55.63,68.96,6.54-4.98,13.08-9.96,19.62-14.95.9.22,1.69.64,2.38,1.27.96,1.45.94,1.42-.05-.09-.29-.54-2.73-5.69-1.43-2.62-2.06-4.9-3.92-9.89-5.88-14.84-3.68-9.27-7.35-18.54-11.03-27.82-7.6-19.16-15.19-38.32-22.79-57.49-15.19-38.32-30.39-76.65-45.58-114.97-2.98-7.51-10.5-13.6-19.07-10.83-7.28,2.36-14.03,11-10.83,19.07h0Z"/>
    <path class="cls-6" d="M984.35,783.67c-10.67-2.22-21.62-3.49-32.53-3.22s-23.19,1.11-33.25,5.68c-22.14,10.07-14.93,42.71-8.97,60.67,6.55,19.77,14.62,39.01,21.07,58.83s12.27,40.26,17.29,60.69c2.69,10.97,3.52,25.93,14.54,32.11,7.81,4.38,15.17,1.94,22.69-1.37,5.99-2.64,11.96-5.31,17.94-7.96,7.65-3.4,9.45-14.55,5.56-21.21-4.61-7.88-13.53-8.97-21.21-5.56-3.89,1.73-7.77,3.45-11.66,5.18-1.48.66-5.31,1.61-6.28,2.79,1.18-1.43,13.9,5.19,6.21,2.07,3.08-.19,5.07.8,5.98,2.96.38.88.45.91.19.08.21-1.61-1.06-4.63-1.42-6.18-.43-1.86-.87-3.72-1.31-5.58-1.03-4.34-2.1-8.67-3.2-12.99-4.25-16.68-9.01-33.24-14.26-49.63-5.24-16.38-11.03-32.56-17.18-48.61-2.96-7.73-5.9-15.49-7.9-23.53-.88-3.55-1.56-7.04-1.69-9.24s-.2-4.2-.14-6.3c.03-.91.1-1.81.14-2.71-.09,1.98-.67.91.08.04.09-.1-2.92,3.89-3.09,3.29-.04-.12,6.36-1.35,6.59-1.39,2.73-.49,7.33-.91,11.44-1.08,9.47-.38,17.86.34,26.13,2.06s17.13-2.31,19.07-10.83c1.77-7.76-2.34-17.3-10.83-19.07h0Z"/>
    <path class="cls-6" d="M944.33,897.41h48.57c8.11,0,15.87-7.13,15.5-15.5s-6.81-15.5-15.5-15.5h-48.57c-8.11,0-15.87,7.13-15.5,15.5s6.81,15.5,15.5,15.5h0Z"/>
  </g>
</svg>